<?xml version="1.0" encoding="UTF-8"?>
<svg width="400px" height="300px" viewBox="0 0 400 300" version="1.1" xmlns="http://www.w3.org/2000/svg" xmlns:xlink="http://www.w3.org/1999/xlink">
    <title>Artboard</title>
    <defs>
        <path d="M47.7658957,125.489494 L64.7684696,55.6130112 L0.521982609,17.2784719 L37.6051826,0.0737752809 L85.3067652,18.590618 C85.3067652,18.590618 85.5961739,103.205596 85.3067652,104.057775 C85.0173565,104.909202 67.6363826,133.298382 67.6363826,133.298382 L47.7658957,125.489494" id="path-1"></path>
        <path d="M126.65475,108.52125 L143.70675,38.9055 L79.2735,0.714 L0.71325,29.931 L61.00125,108.6015 C61.00125,108.6015 110.7765,136.96575 110.487,137.81475 C110.196,138.66375 146.583,116.301 146.583,116.301 L126.65475,108.52125" id="path-3"></path>
    </defs>
    <g id="Artboard" stroke="none" stroke-width="1" fill="none" fill-rule="evenodd">
        <path d="M0,54.1701333 C2.57294521,54.6095333 5.21821918,54.8408756 7.9169863,54.8408756 C33.6434247,54.8408756 54.4974658,34.05012 54.4974658,8.40343111 C54.4974658,5.53343556 54.235274,2.72578222 53.735,0 L0,0 L0,54.1701333" id="Fill-1" fill="#3F6F80"></path>
        <path d="M3.55271368e-15,299.170133 C2.57294521,299.609533 5.21821918,299.840876 7.9169863,299.840876 C33.6434247,299.840876 54.4974658,279.05012 54.4974658,253.403431 C54.4974658,250.533436 54.235274,247.725782 53.735,245 L3.55271368e-15,245 L3.55271368e-15,299.170133" id="Fill-1" fill="#D4EAF2" transform="translate(27.248733, 272.420438) rotate(-90.000000) translate(-27.248733, -272.420438) "></path>
        <path d="M346,299.170133 C348.572945,299.609533 351.218219,299.840876 353.916986,299.840876 C379.643425,299.840876 400.497466,279.05012 400.497466,253.403431 C400.497466,250.533436 400.235274,247.725782 399.735,245 L346,245 L346,299.170133" id="Fill-1" fill="#3F6F80" transform="translate(373.248733, 272.420438) rotate(-180.000000) translate(-373.248733, -272.420438) "></path>
        <path d="M346,54.1701333 C348.572945,54.6095333 351.218219,54.8408756 353.916986,54.8408756 C379.643425,54.8408756 400.497466,34.05012 400.497466,8.40343111 C400.497466,5.53343556 400.235274,2.72578222 399.735,0 L346,0 L346,54.1701333" id="Fill-1" fill="#D4EAF2" transform="translate(373.248733, 27.420438) rotate(-270.000000) translate(-373.248733, -27.420438) "></path>
        <g id="Group" transform="translate(50.000000, 16.000000)">
            <path d="M185.403112,235 C183.476816,235 181.637635,234.611471 180.263318,233.819411 L73.0478509,171.994503 C70.0145916,170.246121 70.3945938,167.191141 73.8979746,165.171989 L79.4004978,162 L180.699645,220.411401 C180.711661,220.418151 180.723677,220.424902 180.734942,220.431652 C182.161077,221.242463 184.059586,221.639993 186.047464,221.639993 C188.467162,221.639993 191.019035,221.051199 193.012921,219.902112 L260.258306,181.139192 L265.952332,184.422939 C268.985592,186.171321 268.604838,189.226301 265.102959,191.245453 L192.09671,233.329624 C190.181678,234.433707 187.728936,235 185.403112,235" id="Fill-96" fill="#8595AC"></path>
            <path d="M296.690501,65.1768012 L184.935946,0.690359184 C183.638268,-0.0584952536 182.319526,-0.173530122 181.148982,0.226460401 L181.156505,0.214430611 L180.952638,0.291872385 L180.90374,0.30991707 L176.865515,1.85499324 L180.489987,3.62788357 C180.472685,3.69479928 180.452373,3.75720381 180.43808,3.82562325 L162.234474,86.6386987 C161.323466,90.7829614 163.147739,95.6219445 166.308808,97.4452096 L275.376228,160.380561 L274.9873,165 L279.400911,163.290266 C280.88365,162.597049 282.071496,161.029417 282.561981,158.796388 L300.765587,75.9833121 C301.676594,71.8390494 299.85157,67.0000663 296.690501,65.1768012" id="Fill-97" fill="#263764"></path>
            <path d="M296.464407,65.1884397 L184.522794,0.69048246 C183.222944,-0.0585056989 181.901995,-0.173561109 180.729492,0.226500839 L180.737027,0.214468901 L180.532819,0.291924504 L180.483839,0.309972411 L176.438855,1.85532449 L180.069394,3.62853139 C180.052063,3.69545905 180.031717,3.75787473 180.0174,3.82630638 L168,58.4152104 L222.771553,101 L300,69.6402568 C299.257767,67.7204107 298.024981,66.0870751 296.464407,65.1884397" id="Fill-98" fill="#3B6397"></path>
            <path d="M292.442563,78 L300.98789,74.4203743 C301.144304,71.1634651 299.774361,67.7987359 297.526386,66 L284,71.5992068 L292.442563,78" id="Fill-99" fill="#2B4876"></path>
            <path d="M271.166206,164.301619 L159.313347,99.6982312 C156.148744,97.8708851 154.322867,93.02307 155.234676,88.8719966 L173.454295,5.90701961 C174.365351,1.7551929 177.670001,-0.129398976 180.833851,1.6979471 L292.68671,66.3020881 C295.85056,68.1294342 297.67719,72.976496 296.76538,77.129076 L278.546514,160.092546 C277.634705,164.245126 274.330056,166.129718 271.166206,164.301619" id="Fill-100" fill="#D4EAF2"></path>
            <path d="M292.707769,65.9430955 L181.382393,1.68589597 C179.857398,0.805578256 178.303927,0.806327463 177,1.4955975 C178.046888,1.26634029 179.1867,1.42592129 180.313773,2.0769818 L291.638399,66.3341813 C294.787307,68.1517564 296.605311,72.9743991 295.697808,77.1040257 L277.564982,159.623884 C277.097366,161.75313 275.990527,163.268025 274.60267,164 C276.481373,163.589435 278.050582,161.885739 278.633602,159.233548 L296.766428,76.7129399 C297.673931,72.5825641 295.856677,67.7614198 292.707769,65.9430955" id="Fill-101" fill="#FFFFFE"></path>
            <path d="M268.320658,158.36413 L162.952741,97.9099982 C160.052942,96.2446096 158.37943,91.8288178 159.215055,88.0466384 L175.913976,12.4697876 C176.749601,8.68760831 179.778364,6.97123074 182.678917,8.63586953 L288.046834,69.0907516 C290.946633,70.7553904 292.620145,75.1719321 291.785275,78.9533616 L275.085599,154.530212 C274.249974,158.312392 271.221211,160.028769 268.320658,158.36413" id="Fill-102" fill="#FFFFFE"></path>
            <path d="M268.320658,158.36413 L162.952741,97.9099982 C160.052942,96.2446096 158.37943,91.8288178 159.215055,88.0466384 L175.913976,12.4697876 C176.749601,8.68760831 179.778364,6.97123074 182.678917,8.63586953 L288.046834,69.0907516 C290.946633,70.7553904 292.620145,75.1719321 291.785275,78.9533616 L275.085599,154.530212 C274.249974,158.312392 271.221211,160.028769 268.320658,158.36413" id="Fill-103" fill="#263764"></path>
            <path d="M268.82046,157.994835 L163.85282,97.4907996 C160.964037,95.8248073 159.296882,91.4046747 160.128581,87.6201707 L176.764817,11.9811211 C177.186302,10.0659805 178.169014,8.68665897 179.409425,8 C177.745275,8.42775477 176.37038,9.98568265 175.849723,12.3533428 L159.214238,87.9908915 C158.381788,91.7768964 160.048942,96.1962786 162.937726,97.8630212 L267.905366,158.367057 C269.332853,159.189547 270.78889,159.181292 272,158.511142 C271.002262,158.767795 269.903096,158.619207 268.82046,157.994835" id="Fill-104" fill="#5589BB"></path>
            <path d="M271.997497,167.13739 L256.745876,165.122017 L158.296427,108.231509 C155.140504,106.407074 149.627029,106.63635 145.982923,108.742682 L76.2221723,149.039624 L67,147.821078 L67,153.058343 L67.0082616,153.059846 C66.9481774,154.270123 67.6368924,155.433792 69.1262293,156.295268 L180.698066,220.768421 C183.854739,222.592856 189.367464,222.36358 193.012321,220.258 L268.985026,176.370822 C271.035399,175.185353 272.057581,173.659352 271.997497,172.225813 L271.997497,167.13739" id="Fill-105" fill="#263764"></path>
            <path d="M198,131.048531 L191.006105,127 L114.122064,127 L76.2203179,148.927725 L67,147.707217 L67,152.952915 L67.0082599,152.954421 C66.9481878,154.166646 67.6367644,155.33219 69.1258018,156.195053 L180.675204,220.772025 C182.342956,221.737288 184.669248,222.122791 187.029331,221.96618 L198,131.048531" id="Fill-106" fill="#3B6397"></path>
            <path d="M71,148.563248 L67,148 L67,153.450207 L67.0080749,153.451772 C66.9493485,154.711257 67.6224995,155.92224 69.0781795,156.818744 L71,158 L71,148.563248" id="Fill-107" fill="#5589BB"></path>
            <path d="M182,221.29662 C184.859809,222.428394 188.947814,222.181802 192,220.647536 L192,209 L182,209 L182,221.29662" id="Fill-108" fill="#2B4876"></path>
            <path d="M180.700226,215.773103 L69.1308245,151.545052 C65.9742202,149.727553 66.3707672,146.554605 70.0147939,144.45628 L145.98584,100.735196 C149.629867,98.6376201 155.143222,98.4099646 158.299075,100.225966 L269.869228,164.455514 C273.025081,166.273014 272.630036,169.445962 268.985259,171.544287 L193.014212,215.264622 C189.369435,217.362198 183.85683,217.590602 180.700226,215.773103" id="Fill-109" fill="#D4EAF2"></path>
            <path d="M268.992057,169.298427 L193.016004,213.333372 C189.370986,215.445251 183.858018,215.675295 180.701206,213.845502 L69.1244508,149.155625 C68.089455,148.556002 67.4435215,147.807794 67.1618644,147 C66.6684012,148.499434 67.2978109,150.015462 69.1244508,151.075173 L180.701206,215.764295 C183.858018,217.594842 189.370986,217.364798 193.016004,215.252165 L268.992057,171.217975 C271.442098,169.797736 272.416256,167.889502 271.83792,166.233186 C271.478901,167.326083 270.527276,168.408421 268.992057,169.298427" id="Fill-110" fill="#FFFFFE"></path>
            <path d="M116.221569,129.834487 L111.268604,126.785987 C110.870657,126.541699 110.920769,126.11439 111.379881,125.831612 L117.226754,122.233267 C117.685867,121.951275 118.3808,121.92064 118.77801,122.164929 L123.731713,125.212644 C124.12966,125.458503 124.078811,125.885811 123.619698,126.167804 L117.773563,129.766149 C117.31445,130.048927 116.619516,130.079561 116.221569,129.834487" id="Fill-111" fill="#5589BB"></path>
            <path d="M124.221642,134.834569 L119.267985,131.786236 C118.870779,131.541961 118.92089,131.114676 119.379999,130.831914 L125.22608,127.23455 C125.685188,126.951003 126.380852,126.92037 126.778059,127.165431 L131.731715,130.212979 C132.129659,130.458039 132.07881,130.88611 131.619702,131.168086 L125.77362,134.76545 C125.314512,135.048997 124.619585,135.07963 124.221642,134.834569" id="Fill-112" fill="#5589BB"></path>
            <path d="M132.221611,138.834498 L127.268606,135.786978 C126.870656,135.541919 126.920768,135.113853 127.379884,134.831879 L133.226067,131.234548 C133.68592,130.951003 134.380859,130.920371 134.778072,131.165429 L139.731077,134.213735 C140.129027,134.458008 140.079652,134.885289 139.620536,135.168048 L133.77288,138.766164 C133.313763,139.048924 132.619561,139.079556 132.221611,138.834498" id="Fill-113" fill="#5589BB"></path>
            <path d="M143.194924,134.84399 L138.26695,131.969247 C137.871744,131.738883 137.92087,131.335189 138.377666,131.06927 L143.260914,128.221194 C143.71771,127.953793 144.409137,127.924905 144.805076,128.15601 L149.73305,131.030753 C150.128256,131.261117 150.07913,131.66407 149.622334,131.931471 L144.739086,134.778806 C144.28229,135.046207 143.590863,135.075095 143.194924,134.84399" id="Fill-114" fill="#5589BB"></path>
            <path d="M151.194924,139.843828 L146.26695,136.970122 C145.871744,136.73898 145.92087,136.335224 146.377666,136.069264 L151.260914,133.220005 C151.71771,132.954045 152.409137,132.925152 152.805076,133.155552 L157.73305,136.03074 C158.128256,136.261141 158.07913,136.664156 157.622334,136.931598 L152.739086,139.780116 C152.28229,140.046076 151.590863,140.074969 151.194924,139.843828" id="Fill-115" fill="#5589BB"></path>
            <path d="M158.194964,143.84445 L153.267235,140.969312 C152.871316,140.738175 152.921172,140.335167 153.377946,140.069211 L158.260951,137.220001 C158.717724,136.954045 159.408383,136.925153 159.805036,137.15555 L164.732765,140.030688 C165.128684,140.261825 165.078828,140.664833 164.622054,140.930789 L159.739049,143.779999 C159.282276,144.045955 158.590883,144.074847 158.194964,143.84445" id="Fill-116" fill="#5589BB"></path>
            <path d="M166.195697,148.84453 L161.267235,145.96959 C160.871316,145.738468 160.921172,145.335488 161.377946,145.068809 L166.260951,142.220537 C166.717724,141.953859 167.409117,141.924968 167.804303,142.15609 L172.732765,145.030289 C173.128684,145.26141 173.078828,145.665132 172.622054,145.931069 L167.739783,148.779342 C167.282276,149.04602 166.590883,149.07491 166.195697,148.84453" id="Fill-117" fill="#5589BB"></path>
            <path d="M174.195412,152.844528 L169.266922,149.96956 C168.871,149.739177 168.92159,149.335452 169.378366,149.068771 L174.260666,146.221211 C174.717442,145.953789 175.408838,145.924899 175.804026,146.156022 L180.732516,149.03025 C181.128438,149.261374 181.079314,149.664358 180.621805,149.931039 L175.738773,152.77934 C175.281996,153.046021 174.5906,153.074911 174.195412,152.844528" id="Fill-118" fill="#5589BB"></path>
            <path d="M182.195659,157.843908 L177.267168,154.969658 C176.871247,154.738533 176.921104,154.335546 177.378613,154.068863 L182.261646,151.220541 C182.718422,150.953858 183.409085,150.924967 183.805006,151.156092 L188.732763,154.031083 C189.128685,154.261467 189.078828,154.664454 188.622052,154.931137 L183.73902,157.779459 C183.282243,158.046142 182.590847,158.075033 182.195659,157.843908" id="Fill-119" fill="#5589BB"></path>
            <path d="M190.195476,161.843908 L185.266941,158.968917 C184.871749,158.738533 184.920873,158.335546 185.377653,158.069603 L190.261464,155.220541 C190.718244,154.953858 191.408914,154.924967 191.804839,155.156092 L196.733374,158.031083 C197.128566,158.261467 197.078709,158.664454 196.621929,158.931137 L191.738851,161.779459 C191.282071,162.046142 190.591401,162.075033 190.195476,161.843908" id="Fill-120" fill="#5589BB"></path>
            <path d="M197.195476,166.843908 L192.266941,163.969658 C191.871749,163.738533 191.920873,163.335546 192.377653,163.068863 L197.260731,160.220541 C197.717511,159.953858 198.408914,159.924967 198.804839,160.156092 L203.733374,163.030342 C204.128566,163.261467 204.078709,163.664454 203.621929,163.931137 L198.738851,166.779459 C198.282071,167.046142 197.591401,167.075033 197.195476,166.843908" id="Fill-121" fill="#5589BB"></path>
            <path d="M205.194795,170.844533 L200.266944,167.969642 C199.871748,167.738525 199.920872,167.33481 200.377657,167.068878 L205.260783,164.220654 C205.717568,163.953981 206.408978,163.925091 206.804907,164.155467 L211.732758,167.030358 C212.128687,167.261475 212.07883,167.664449 211.622045,167.931122 L206.738919,170.779346 C206.282134,171.046019 205.591457,171.074909 205.194795,170.844533" id="Fill-122" fill="#5589BB"></path>
            <path d="M213.194727,175.84445 L208.26756,172.970053 C207.871627,172.738175 207.920752,172.335167 208.377541,172.069211 L213.260716,169.220001 C213.717505,168.954045 214.409655,168.925153 214.804855,169.15555 L219.732756,172.030688 C220.128689,172.261825 220.078831,172.664833 219.622041,172.93153 L214.738866,175.779999 C214.282077,176.045955 213.59066,176.074847 213.194727,175.84445" id="Fill-123" fill="#5589BB"></path>
            <path d="M154.194727,132.843902 L149.26756,129.968809 C148.871627,129.738417 148.920752,129.335415 149.377541,129.069463 L154.260716,126.220299 C154.717505,125.954347 155.409655,125.924715 155.804855,126.155848 L160.732756,129.030941 C161.128689,129.261334 161.078831,129.664336 160.622041,129.931769 L155.738866,132.779451 C155.282077,133.046144 154.59066,133.075036 154.194727,132.843902" id="Fill-124" fill="#5589BB"></path>
            <path d="M146.195484,128.843902 L141.267779,125.968809 C140.871128,125.738417 140.920984,125.335415 141.378489,125.068722 L146.260737,122.220299 C146.717508,121.954347 147.408897,121.924715 147.804814,122.155848 L152.732519,125.0302 C153.128437,125.260593 153.079314,125.664336 152.621809,125.931028 L147.739561,128.779451 C147.28279,129.046144 146.590668,129.075036 146.195484,128.843902" id="Fill-125" fill="#5589BB"></path>
            <path d="M139.073967,123.849232 L128.271683,117.847762 C127.86947,117.624448 127.919467,117.23311 128.384362,116.974612 L133.354189,114.214424 C133.819085,113.955207 134.52277,113.927203 134.925729,114.151235 L145.728013,120.152705 C146.130972,120.376737 146.080229,120.767357 145.615334,121.025855 L140.645507,123.786762 C140.180612,124.044542 139.477673,124.072546 139.073967,123.849232" id="Fill-126" fill="#5589BB"></path>
            <path d="M144.058517,117.846529 L135.27198,112.903985 C134.868852,112.677369 134.919711,112.280975 135.385663,112.017926 L140.366795,109.216933 C140.832748,108.954613 141.537286,108.926195 141.941162,109.153539 L150.727699,114.095354 C151.130826,114.32197 151.080716,114.718364 150.614763,114.981413 L145.633631,117.782407 C145.167679,118.045455 144.462392,118.073873 144.058517,117.846529" id="Fill-127" fill="#5589BB"></path>
            <path d="M162.195422,137.84445 L157.267493,134.969312 C156.871557,134.738175 156.920683,134.335167 157.378208,134.06847 L162.260678,131.220001 C162.71747,130.954045 163.409623,130.925153 163.804825,131.15555 L168.732754,134.029947 C169.12869,134.261825 169.078831,134.664833 168.622039,134.930789 L163.739569,137.779999 C163.282777,138.045955 162.590624,138.074847 162.195422,137.84445" id="Fill-128" fill="#5589BB"></path>
            <path d="M170.195382,141.844533 L165.26692,138.969642 C164.871001,138.738525 164.921591,138.335551 165.378364,138.068878 L170.260636,135.220654 C170.718142,134.953981 171.408802,134.925091 171.803988,135.155467 L176.73245,138.030358 C177.128369,138.261475 177.079246,138.66519 176.622472,138.931122 L171.739467,141.779346 C171.282694,142.046019 170.590568,142.074909 170.195382,141.844533" id="Fill-129" fill="#5589BB"></path>
            <path d="M178.195382,146.84453 L173.26692,143.96959 C172.871001,143.738468 172.921591,143.335488 173.378364,143.068809 L178.261369,140.220537 C178.718142,139.953859 179.408802,139.924968 179.804721,140.15609 L184.73245,143.030289 C185.128369,143.26141 185.079246,143.664391 184.622472,143.931069 L179.738734,146.779342 C179.281961,147.04602 178.591301,147.07491 178.195382,146.84453" id="Fill-130" fill="#5589BB"></path>
            <path d="M186.195161,150.844152 L181.266626,147.969059 C180.871434,147.738666 180.921291,147.335664 181.378071,147.068972 L186.261149,144.220549 C186.717929,143.953856 187.408599,143.924964 187.804524,144.156098 L192.733059,147.031191 C193.128251,147.261583 193.079127,147.664585 192.622347,147.930537 L187.738536,150.779701 C187.281756,151.045653 186.591086,151.075285 186.195161,150.844152" id="Fill-131" fill="#5589BB"></path>
            <path d="M193.195476,155.843908 L188.266941,152.968917 C187.871749,152.738533 187.920873,152.335546 188.377653,152.068863 L193.261464,149.220541 C193.718244,148.953858 194.408914,148.924967 194.804839,149.156092 L199.733374,152.030342 C200.128566,152.261467 200.078709,152.664454 199.621929,152.931137 L194.738851,155.779459 C194.282071,156.046142 193.591401,156.075033 193.195476,155.843908" id="Fill-132" fill="#5589BB"></path>
            <path d="M201.195279,159.843978 L196.26755,156.969009 C195.871631,156.738626 195.920754,156.335642 196.377528,156.068961 L201.260533,153.22066 C201.718039,152.953979 202.408699,152.925089 202.804618,153.155472 L207.73308,156.03044 C208.128999,156.260823 208.078409,156.664548 207.621636,156.931229 L202.738631,159.778789 C202.281858,160.046211 201.591198,160.075101 201.195279,159.843978" id="Fill-133" fill="#5589BB"></path>
            <path d="M209.196012,164.84391 L204.26755,161.969711 C203.871631,161.73859 203.920754,161.334868 204.377528,161.068931 L209.260533,158.220658 C209.717306,157.95398 210.409432,157.92509 210.804618,158.15547 L215.73308,161.03041 C216.128999,161.261532 216.078409,161.664512 215.621636,161.931191 L210.739364,164.779463 C210.281858,165.046141 209.591198,165.075032 209.196012,164.84391" id="Fill-134" fill="#5589BB"></path>
            <path d="M217.195175,168.84445 L212.267246,165.969312 C211.87131,165.738175 211.921169,165.335167 212.377961,165.069211 L217.260431,162.220001 C217.717956,161.954045 218.409376,161.925153 218.804578,162.15555 L223.732507,165.030688 C224.128443,165.261825 224.079317,165.664833 223.621792,165.930789 L218.739322,168.779999 C218.28253,169.045955 217.590377,169.074847 217.195175,168.84445" id="Fill-135" fill="#5589BB"></path>
            <path d="M225.195145,173.844448 L220.267244,170.96926 C219.871311,170.738119 219.921169,170.335844 220.377959,170.068402 L225.261134,167.219884 C225.717923,166.953924 226.40934,166.925031 226.805273,167.156172 L231.73244,170.029878 C232.128373,170.26102 232.079248,170.664776 231.622459,170.930736 L226.739284,173.779995 C226.282495,174.045955 225.590345,174.074848 225.195145,173.844448" id="Fill-136" fill="#5589BB"></path>
            <path d="M238.128161,181.834942 L227.269251,175.198735 C226.870168,174.95501 226.920516,174.528688 227.381794,174.246563 L232.31295,171.233311 C232.774228,170.951186 233.471698,170.920622 233.871521,171.165131 L244.730431,177.800554 C245.129514,178.044279 245.079906,178.471385 244.618628,178.75351 L239.687472,181.765978 C239.226194,182.048887 238.527984,182.079451 238.128161,181.834942" id="Fill-137" fill="#5589BB"></path>
            <path d="M253.836057,172.834286 L244.280701,167.21434 C243.864647,166.968969 243.917136,166.541142 244.39803,166.258021 L249.538887,163.234134 C250.019781,162.951014 250.746911,162.920342 251.163738,163.165714 L260.718321,168.786446 C261.135148,169.031031 261.08343,169.458858 260.602536,169.742765 L255.461679,172.765866 C254.980785,173.048986 254.252111,173.079658 253.836057,172.834286" id="Fill-138" fill="#5589BB"></path>
            <path d="M176.195697,136.84445 L171.267235,133.969312 C170.871316,133.738175 170.921172,133.335167 171.377946,133.069211 L176.260951,130.220001 C176.717724,129.954045 177.409117,129.925153 177.804303,130.15555 L182.732765,133.030688 C183.128684,133.261825 183.078828,133.664833 182.622054,133.93153 L177.739049,136.779999 C177.281543,137.045955 176.590883,137.074847 176.195697,136.84445" id="Fill-139" fill="#5589BB"></path>
            <path d="M168.194924,131.843914 L163.26695,128.969048 C162.871744,128.738673 162.92087,128.335703 163.377666,128.068291 L168.260914,125.220832 C168.71771,124.954161 169.409137,124.924531 169.805076,125.156387 L174.73305,128.030513 C175.128256,128.260887 175.07913,128.664598 174.622334,128.930529 L169.739086,131.779469 C169.28229,132.04614 168.590863,132.07503 168.194924,131.843914" id="Fill-140" fill="#5589BB"></path>
            <path d="M160.195279,127.843288 L155.26755,124.969779 C154.871631,124.738654 154.920754,124.334926 155.377528,124.068984 L160.260533,121.220662 C160.718039,120.953979 161.409432,120.925088 161.804618,121.155473 L166.73308,124.030463 C167.128999,124.261588 167.078409,124.663835 166.621636,124.931258 L161.738631,127.77958 C161.281858,128.046263 160.591198,128.075154 160.195279,127.843288" id="Fill-141" fill="#5589BB"></path>
            <path d="M152.195382,122.844448 L147.26692,119.96926 C146.871001,119.738119 146.921591,119.335844 147.378364,119.069143 L152.261369,116.219884 C152.718142,115.953924 153.408802,115.925031 153.804721,116.156172 L158.73245,119.030619 C159.128369,119.26176 159.079246,119.664776 158.622472,119.930736 L153.738734,122.779995 C153.281961,123.045955 152.590568,123.074848 152.195382,122.844448" id="Fill-142" fill="#5589BB"></path>
            <path d="M184.195552,140.84445 L179.267163,137.969312 C178.871249,137.738175 178.921105,137.335167 179.378605,137.06847 L184.260804,134.220001 C184.718304,133.954045 185.408953,133.925153 185.804133,134.15555 L190.732522,137.030688 C191.128435,137.261825 191.079313,137.664833 190.621813,137.930789 L185.738881,140.779999 C185.282114,141.045955 184.590732,141.074847 184.195552,140.84445" id="Fill-143" fill="#5589BB"></path>
            <path d="M191.195697,145.844234 L186.267235,142.969389 C185.871316,142.739016 185.921172,142.336049 186.377946,142.068639 L191.261684,139.221201 C191.718457,138.953791 192.409117,138.924902 192.805036,139.156016 L197.732765,142.03086 C198.128684,142.261233 198.078828,142.664941 197.622054,142.93087 L192.739049,145.779048 C192.282276,146.045717 191.590883,146.075347 191.195697,145.844234" id="Fill-144" fill="#5589BB"></path>
            <path d="M199.195476,149.84399 L194.266941,146.969247 C193.871749,146.738883 193.920873,146.335189 194.377653,146.068529 L199.260731,143.221194 C199.718244,142.953793 200.408914,142.924905 200.804839,143.15601 L205.733374,146.030753 C206.128566,146.261117 206.078709,146.66407 205.621929,146.931471 L200.738851,149.778806 C200.282071,150.046207 199.591401,150.075095 199.195476,149.84399" id="Fill-145" fill="#5589BB"></path>
            <path d="M207.195528,154.843902 L202.266944,151.968809 C201.871748,151.738417 201.920872,151.335415 202.377657,151.069463 L207.260783,148.220299 C207.717568,147.954347 208.408978,147.924715 208.804907,148.155848 L213.732758,151.030941 C214.128687,151.261334 214.07883,151.664336 213.622045,151.931769 L208.738919,154.779451 C208.282134,155.046144 207.591457,155.075036 207.195528,154.843902" id="Fill-146" fill="#5589BB"></path>
            <path d="M215.194795,158.843828 L210.266944,155.969381 C209.871748,155.73824 209.920872,155.335224 210.377657,155.068523 L215.260783,152.220005 C215.717568,151.954045 216.408978,151.925152 216.804907,152.155552 L221.732758,155.03 C222.128687,155.261881 222.07883,155.664897 221.622045,155.930857 L216.738919,158.780116 C216.282134,159.046076 215.590724,159.074969 215.194795,158.843828" id="Fill-147" fill="#5589BB"></path>
            <path d="M223.194727,163.844533 L218.26756,160.969642 C217.871627,160.738525 217.920752,160.335551 218.377541,160.068878 L223.260716,157.220654 C223.717505,156.953981 224.409655,156.925091 224.804855,157.155467 L229.732756,160.030358 C230.128689,160.261475 230.078831,160.66519 229.622041,160.931122 L224.738866,163.779346 C224.282077,164.046019 223.59066,164.074909 223.194727,163.844533" id="Fill-148" fill="#5589BB"></path>
            <path d="M230.195552,167.84453 L225.267163,164.96959 C224.871249,164.738468 224.921105,164.335488 225.378605,164.068809 L230.260804,161.220537 C230.717571,160.953859 231.408953,160.924968 231.804133,161.15609 L236.732522,164.030289 C237.128435,164.26141 237.079313,164.664391 236.621813,164.931069 L231.739614,167.779342 C231.282847,168.04602 230.590732,168.07491 230.195552,167.84453" id="Fill-149" fill="#5589BB"></path>
            <path d="M238.195382,172.844152 L233.26692,169.969059 C232.871001,169.738666 232.921591,169.335664 233.378364,169.068972 L238.260636,166.220549 C238.718142,165.953856 239.408802,165.924964 239.804721,166.156098 L244.73245,169.031191 C245.128369,169.261583 245.079246,169.664585 244.622472,169.931278 L239.738734,172.779701 C239.281961,173.045653 238.590568,173.075285 238.195382,172.844152" id="Fill-150" fill="#5589BB"></path>
            <path d="M246.19533,176.843908 L241.266917,173.968917 C240.871002,173.738533 240.921591,173.335546 241.37836,173.068122 L246.261316,170.220541 C246.718085,169.953858 247.408738,169.924967 247.804653,170.156092 L252.733066,173.030342 C253.128248,173.261467 253.079125,173.664454 252.622356,173.931137 L247.738667,176.779459 C247.281898,177.046142 246.591246,177.075033 246.19533,176.843908" id="Fill-151" fill="#5589BB"></path>
            <path d="M172.195552,125.843601 L167.267163,122.96999 C166.871249,122.738856 166.921105,122.335114 167.378605,122.069162 L172.260804,119.219998 C172.717571,118.954046 173.408953,118.925155 173.804133,119.155547 L178.732522,122.03064 C179.128435,122.261032 179.079313,122.664034 178.621813,122.931468 L173.739614,125.77915 C173.282847,126.045843 172.590732,126.075475 172.195552,125.843601" id="Fill-152" fill="#5589BB"></path>
            <path d="M164.194964,120.84445 L159.267235,117.969312 C158.871316,117.738175 158.921172,117.335167 159.377946,117.069211 L164.260951,114.220001 C164.717724,113.954045 165.408383,113.925153 165.804303,114.15555 L170.732765,117.030688 C171.128684,117.261825 171.078828,117.664833 170.622054,117.930789 L165.739049,120.779999 C165.281543,121.045955 164.590883,121.074847 164.194964,120.84445" id="Fill-153" fill="#5589BB"></path>
            <path d="M156.195161,116.84445 L151.266626,113.969312 C150.871434,113.738175 150.921291,113.335167 151.378071,113.06847 L156.261149,110.220001 C156.717929,109.954045 157.408599,109.925153 157.804524,110.15555 L162.733059,113.029947 C163.128251,113.261825 163.079127,113.664833 162.622347,113.930789 L157.738536,116.779999 C157.281756,117.045955 156.591086,117.074847 156.195161,116.84445" id="Fill-154" fill="#5589BB"></path>
            <path d="M148.195697,111.844533 L143.267235,108.969642 C142.871316,108.738525 142.921172,108.335551 143.377946,108.068878 L148.261684,105.220654 C148.718457,104.953981 149.409117,104.925091 149.805036,105.155467 L154.732765,108.030358 C155.128684,108.261475 155.078828,108.66519 154.622054,108.931122 L149.739049,111.779346 C149.282276,112.046019 148.590883,112.074909 148.195697,111.844533" id="Fill-155" fill="#5589BB"></path>
            <path d="M156.354917,107.847374 L151.275463,105.025032 C150.867354,104.798866 150.918745,104.403258 151.389583,104.140732 L153.053763,103.217162 C153.524601,102.954635 154.236525,102.926273 154.644635,103.153166 L159.724844,105.975509 C160.132198,106.201674 160.081562,106.597282 159.610725,106.859809 L157.945788,107.783379 C157.474951,108.045178 156.763026,108.07354 156.354917,107.847374" id="Fill-156" fill="#5589BB"></path>
            <path d="M166.354742,112.846748 L161.275801,110.024798 C160.867672,109.798606 160.91831,109.402224 161.389171,109.140394 L163.053431,108.215987 C163.524291,107.954884 164.237005,107.926519 164.645134,108.152711 L169.724831,110.975388 C170.132204,111.20158 170.081566,111.597235 169.610706,111.859066 L167.946446,112.783472 C167.475586,113.045303 166.762871,113.073668 166.354742,112.846748" id="Fill-157" fill="#5589BB"></path>
            <path d="M174.355786,117.847291 L169.27571,115.024652 C168.867612,114.797736 168.918246,114.402086 169.389827,114.140987 L171.053208,113.215865 C171.524033,112.954766 172.236695,112.926401 172.644793,113.153318 L177.724869,115.974502 C178.132968,116.201418 178.080822,116.597795 177.609996,116.858894 L175.946616,117.784016 C175.47579,118.045115 174.763129,118.07348 174.355786,117.847291" id="Fill-158" fill="#5589BB"></path>
            <path d="M182.355683,121.846768 L177.275464,119.024464 C176.867353,118.798301 176.918745,118.402699 177.389583,118.140176 L179.053767,117.216618 C179.524606,116.954822 180.237287,116.926461 180.644642,117.152624 L185.724861,119.974928 C186.132971,120.201091 186.080824,120.59742 185.609985,120.859216 L183.946558,121.783501 C183.475719,122.045297 182.763037,122.073658 182.355683,121.846768" id="Fill-159" fill="#5589BB"></path>
            <path d="M190.355082,126.847378 L185.274833,124.025112 C184.867476,123.798226 184.918868,123.402628 185.38971,123.140836 L187.053147,122.215837 C187.524744,121.954772 188.236674,121.926411 188.644787,122.153298 L193.72428,124.974836 C194.132393,125.201723 194.081757,125.59732 193.61016,125.859113 L191.945966,126.783385 C191.475125,127.045177 190.763195,127.073538 190.355082,126.847378" id="Fill-160" fill="#5589BB"></path>
            <path d="M233.355683,151.847376 L228.275464,149.025072 C227.867353,148.798909 227.918745,148.403307 228.389583,148.140784 L230.053767,147.216499 C230.524606,146.954703 231.237287,146.926342 231.644642,147.153232 L236.724861,149.975536 C237.132971,150.201699 237.080824,150.597301 236.609985,150.859824 L234.946558,151.783382 C234.475719,152.045178 233.763037,152.073539 233.355683,151.847376" id="Fill-161" fill="#5589BB"></path>
            <path d="M240.355207,155.846158 L235.275131,153.025279 C234.867032,152.798387 234.919178,152.402053 235.390004,152.140982 L237.053384,151.215961 C237.52421,150.954889 238.236871,150.926528 238.644214,151.152693 L243.72429,153.975026 C244.132388,154.201918 244.081754,154.597525 243.610173,154.858596 L241.946036,155.783617 C241.475211,156.045416 240.763305,156.073777 240.355207,155.846158" id="Fill-162" fill="#5589BB"></path>
            <path d="M248.35504,160.847289 L243.274831,158.024612 C242.867477,157.79842 242.918869,157.402765 243.389706,157.140934 L245.053887,156.216528 C245.524724,155.954697 246.236649,155.926332 246.644759,156.153252 L251.724212,158.975202 C252.132321,159.202121 252.081686,159.597776 251.610848,159.859606 L249.946668,160.784013 C249.475074,161.045116 248.76315,161.073481 248.35504,160.847289" id="Fill-163" fill="#5589BB"></path>
            <path d="M256.354867,164.846768 L251.276099,162.025191 C250.867228,161.798301 250.91862,161.402699 251.389464,161.140903 L253.053668,160.216618 C253.524512,159.954822 254.236446,159.926461 254.645317,160.152624 L259.72484,162.974928 C260.1322,163.201818 260.081563,163.598148 259.610719,163.859216 L257.946516,164.783501 C257.475672,165.045297 256.762982,165.073658 256.354867,164.846768" id="Fill-164" fill="#5589BB"></path>
            <path d="M180.195382,129.84445 L175.26692,126.969312 C174.871001,126.738175 174.921591,126.335167 175.378364,126.069211 L180.260636,123.220001 C180.718142,122.954045 181.408802,122.925153 181.804721,123.15555 L186.73245,126.030688 C187.128369,126.261825 187.079246,126.664833 186.622472,126.930789 L181.739467,129.779999 C181.281961,130.045955 180.590568,130.074847 180.195382,129.84445" id="Fill-165" fill="#5589BB"></path>
            <path d="M187.19533,134.84445 L182.266917,131.969312 C181.871002,131.738175 181.921591,131.335167 182.37836,131.06847 L187.261316,128.220001 C187.718085,127.954045 188.408738,127.925153 188.804653,128.15555 L193.733066,131.029947 C194.128248,131.261084 194.079125,131.664833 193.622356,131.930789 L188.738667,134.779999 C188.281898,135.045955 187.591246,135.074847 187.19533,134.84445" id="Fill-166" fill="#5589BB"></path>
            <path d="M195.195476,138.84453 L190.266941,135.96959 C189.871749,135.739209 189.920873,135.336229 190.377653,135.068809 L195.261464,132.220537 C195.718244,131.953859 196.408914,131.924968 196.804839,132.15609 L201.733374,135.030289 C202.128566,135.26141 202.078709,135.665132 201.621929,135.931069 L196.738851,138.779342 C196.282071,139.04602 195.591401,139.07491 195.195476,138.84453" id="Fill-167" fill="#5589BB"></path>
            <path d="M203.195476,143.843908 L198.266941,140.969658 C197.871749,140.739274 197.920873,140.335546 198.377653,140.068863 L203.261464,137.220541 C203.718244,136.953858 204.408914,136.924967 204.804839,137.156092 L209.733374,140.031083 C210.128566,140.261467 210.078709,140.664454 209.621929,140.931137 L204.738851,143.779459 C204.282071,144.046142 203.591401,144.075033 203.195476,143.843908" id="Fill-168" fill="#5589BB"></path>
            <path d="M211.195279,147.843908 L206.26755,144.968917 C205.871631,144.738533 205.920754,144.335546 206.377528,144.069603 L211.260533,141.220541 C211.717306,140.953858 212.409432,140.924967 212.804618,141.156092 L217.73308,144.031083 C218.128999,144.261467 218.078409,144.664454 217.621636,144.931137 L212.738631,147.779459 C212.281858,148.046142 211.591198,148.075033 211.195279,147.843908" id="Fill-169" fill="#5589BB"></path>
            <path d="M219.195422,152.843828 L214.267493,149.969381 C213.871557,149.73824 213.920683,149.335224 214.378208,149.068523 L219.260678,146.220005 C219.71747,145.954045 220.409623,145.925152 220.804825,146.155552 L225.732754,149.03 C226.12869,149.261141 226.078831,149.664156 225.622039,149.930857 L220.739569,152.780116 C220.282044,153.046076 219.590624,153.074969 219.195422,152.843828" id="Fill-170" fill="#5589BB"></path>
            <path d="M226.195175,156.844533 L221.267246,153.969642 C220.87131,153.738525 220.921169,153.33481 221.377961,153.068878 L226.260431,150.220654 C226.717956,149.953981 227.409376,149.925091 227.804578,150.155467 L232.732507,153.030358 C233.128443,153.261475 233.079317,153.664449 232.621792,153.931122 L227.739322,156.779346 C227.28253,157.046019 226.590377,157.074909 226.195175,156.844533" id="Fill-171" fill="#5589BB"></path>
            <path d="M234.195314,161.84445 L229.267536,158.970053 C228.870879,158.738916 228.92147,158.335167 229.378248,158.069211 L234.261301,155.220001 C234.718079,154.954045 235.408746,154.925153 235.805402,155.15555 L240.732447,158.030688 C241.12837,158.261825 241.079246,158.664833 240.622468,158.93153 L235.739415,161.779999 C235.282637,162.045955 234.590504,162.074847 234.195314,161.84445" id="Fill-172" fill="#5589BB"></path>
            <path d="M242.195161,165.844446 L237.266626,162.96923 C236.871434,162.738827 236.921291,162.335808 237.378071,162.069104 L242.261149,159.220558 C242.717929,158.953854 243.408599,158.924961 243.804524,159.156105 L248.733059,162.03058 C249.128251,162.261724 249.079127,162.664743 248.622347,162.930706 L243.739269,165.779993 C243.281756,166.045956 242.591086,166.074849 242.195161,165.844446" id="Fill-173" fill="#5589BB"></path>
            <path d="M135.064544,130.839484 L120.272369,122.09842 C119.868844,121.860563 119.919658,121.443739 120.385206,121.168406 L125.362013,118.227694 C125.827561,117.952361 126.531488,117.922533 126.935012,118.161155 L141.727935,126.901455 C142.130713,127.140077 142.080646,127.556901 141.615098,127.831469 L136.638291,130.772181 C136.172743,131.047514 135.468069,131.077342 135.064544,130.839484" id="Fill-174" fill="#5589BB"></path>
            <path d="M231.064988,185.839413 L216.272065,177.098349 C215.869287,176.860492 215.919354,176.444433 216.384902,176.168335 L221.361709,173.228388 C221.827257,172.95229 222.531931,172.922462 222.935456,173.161084 L237.727631,181.902148 C238.131156,182.140771 238.080342,182.55683 237.614794,182.831398 L232.637987,185.772874 C232.172439,186.047443 231.468512,186.07727 231.064988,185.839413" id="Fill-175" fill="#5589BB"></path>
            <path d="M200.221442,177.834495 L195.268597,174.786141 C194.87066,174.541864 194.92077,174.114576 195.379872,173.831812 L201.226602,170.234423 C201.685704,169.950874 202.38062,169.920241 202.778558,170.166089 L207.731403,173.213658 C208.12934,173.457935 208.07923,173.886008 207.620128,174.167987 L201.773398,177.766161 C201.313559,178.048925 200.61938,178.079557 200.221442,177.834495" id="Fill-176" fill="#5589BB"></path>
            <path d="M143.206044,144.849014 L135.269131,140.384355 C134.870403,140.159179 134.920613,139.76782 135.380627,139.509552 L141.238983,136.213935 C141.698998,135.955666 142.395296,135.92689 142.794025,136.151346 L150.730937,140.616005 C151.129666,140.840461 151.079456,141.23182 150.618703,141.490807 L144.761085,144.785705 C144.301071,145.044693 143.604773,145.07275 143.206044,144.849014" id="Fill-177" fill="#5589BB"></path>
            <path d="M192.206326,172.848942 L184.269448,168.384138 C183.870721,168.159675 183.920192,167.768303 184.380205,167.509307 L190.238536,164.214302 C190.699287,163.955306 191.394843,163.927248 191.79357,164.150991 L199.731187,168.615795 C200.129914,168.840978 200.078965,169.23235 199.618953,169.490626 L193.761361,172.786351 C193.301348,173.044628 192.605053,173.072686 192.206326,172.848942" id="Fill-178" fill="#5589BB"></path>
            <path d="M154.206755,151.848483 L146.26884,147.383944 C145.870837,147.159494 145.92031,146.768146 146.38034,146.509165 L152.23889,143.213636 C152.69892,142.955375 153.395242,142.927319 153.793245,143.151049 L161.73116,147.616307 C162.129163,147.840038 162.07969,148.232106 161.61966,148.490367 L155.76111,151.785176 C155.30108,152.044876 154.604758,152.072933 154.206755,151.848483" id="Fill-179" fill="#5589BB"></path>
            <path d="M153.638781,143 L188.674471,163.369434 C189.10851,163.621561 189.10851,164.031455 188.674471,164.284337 L182.609174,167.810339 C182.174386,168.06322 181.468979,168.06322 181.034941,167.810339 L146,147.44166 L153.638781,143" id="Fill-180" fill="#5589BB"></path>
            <path d="M221.092373,186.136363 L226.773185,189.544497 C227.109315,189.745579 227.066824,190.097274 226.679099,190.329898 L224.216933,191.80765 C223.829209,192.040273 223.24269,192.065507 222.90656,191.863637 L217.226506,188.455503 C216.891136,188.253633 216.932867,187.902726 217.320592,187.670102 L219.782758,186.19235 C220.170483,185.959727 220.756243,185.934493 221.092373,186.136363" id="Fill-181" fill="#5589BB"></path>
            <path d="M214.09267,181.13636 L219.773197,184.544421 C220.109309,184.746287 220.066821,185.097975 219.679116,185.330593 L217.216315,186.807525 C216.828609,187.040144 216.242879,187.065377 215.907525,186.8643 L210.226239,183.45545 C209.890886,183.254373 209.933374,182.902685 210.32032,182.670066 L212.783121,181.192346 C213.170827,180.959727 213.757316,180.934494 214.09267,181.13636" id="Fill-182" fill="#5589BB"></path>
            <path d="M206.092796,177.135376 L211.773498,180.544931 C212.108862,180.746003 212.067131,181.097682 211.679414,181.330295 L209.216537,182.807979 C208.829579,183.040592 208.243071,183.065036 207.907707,182.863964 L202.226246,179.455198 C201.890882,179.254126 201.933372,178.902447 202.32033,178.669834 L204.783207,177.19215 C205.170924,176.959537 205.757432,176.935093 206.092796,177.135376" id="Fill-183" fill="#5589BB"></path>
            <path d="M218.092786,179.136035 L223.773744,182.543981 C224.109123,182.74584 224.066631,183.097516 223.679655,183.330126 L221.217426,184.807797 C220.829692,185.039619 220.243158,185.06564 219.907778,184.864569 L214.226821,181.455047 C213.890683,181.254765 213.933174,180.9023 214.320909,180.669689 L216.783138,179.192019 C217.170872,178.959408 217.757406,178.934965 218.092786,179.136035" id="Fill-184" fill="#5589BB"></path>
            <polyline id="Fill-185" fill="#D4EAF2" points="249.454062 91 207 66.7326261 207.546697 64 250 88.2681256 249.454062 91"></polyline>
            <polyline id="Fill-186" fill="#D4EAF2" points="233.45659 96 204 78.7782024 204.542655 76 234 93.2225619 233.45659 96"></polyline>
            <polyline id="Fill-187" fill="#FFFFFE" points="231.458647 87 206 72.6717541 206.54286 70 232 84.3282459 231.458647 87"></polyline>
            <polyline id="Fill-188" fill="#DA3685" points="247.468272 97 235 89.7163354 235.531728 87 248 94.2836646 247.468272 97"></polyline>
            <polyline id="Fill-189" fill="#D4EAF2" points="202.468981 43 190 35.715791 190.531758 33 203 40.284209 202.468981 43"></polyline>
            <polyline id="Fill-190" fill="#FFFFFE" points="200.468981 49 188 41.7163354 188.531758 39 201 46.2836646 200.468981 49"></polyline>
            <polyline id="Fill-191" fill="#D4EAF2" points="263.468951 137 251 129.715588 251.530311 127 264 134.283665 263.468951 137"></polyline>
            <polyline id="Fill-192" fill="#D4EAF2" points="198.468242 62 186 54.7163354 186.531019 52 199 59.2836646 198.468242 62"></polyline>
            <path d="M225.855889,63.9768344 C225.502004,64.9409267 224.60808,65.2841895 223.858869,64.7446592 C223.110315,64.2051288 222.789976,62.9864637 223.144519,62.0223715 C223.497747,61.0591005 224.391671,60.7158377 225.140882,61.255368 C225.889436,61.7948983 226.209775,63.0135634 225.855889,63.9768344" id="Fill-193" fill="#DA3685"></path>
            <path d="M230.855771,66.9771656 C230.501863,67.9402869 229.608541,68.2843175 228.859281,67.744871 C228.110022,67.2054246 227.790321,65.9869489 228.144229,65.0230065 C228.498137,64.0590642 229.392117,63.7158547 230.140719,64.2553011 C230.889978,64.7947476 231.209679,66.0140444 230.855771,66.9771656" id="Fill-194" fill="#FFFFFE"></path>
            <path d="M235.855884,69.9767662 C235.501985,70.9405793 234.60803,71.2845637 233.858791,70.7443686 C233.110867,70.2049945 232.789859,68.9866823 233.144415,68.0228693 C233.498314,67.0590562 234.39227,66.7158928 235.140851,67.2552669 C235.889432,67.7954619 236.209783,69.0137742 235.855884,69.9767662" id="Fill-195" fill="#D4EAF2"></path>
            <path d="M241.855914,73.9772658 C241.502056,74.9402928 240.608203,75.2842896 239.85905,74.744896 C239.110555,74.2046814 238.790241,72.986325 239.144099,72.022477 C239.497957,71.05945 240.391811,70.7154531 241.140306,71.2556678 C241.889459,71.7950614 242.209772,73.0134178 241.855914,73.9772658" id="Fill-196" fill="#DA3685"></path>
            <path d="M151.250023,186.610294 L116.678787,166.774662 C115.673306,166.197213 115.799365,165.188345 116.96074,164.521944 L137.823721,152.551923 C138.985842,151.88478 140.743196,151.812136 141.750168,152.390326 L176.320658,172.225958 C177.326885,172.803407 177.200827,173.811534 176.038706,174.478676 L155.17647,186.447956 C154.014349,187.115098 152.256996,187.187743 151.250023,186.610294" id="Fill-197" fill="#FFFFFE"></path>
            <g id="Group-221" transform="translate(198.000000, 13.000000)">
                <mask id="mask-2" fill="white">
                    <use xlink:href="#path-1"></use>
                </mask>
                <g id="Clip-199"></g>
                <path d="M26.9262261,29.3761124 C26.7923652,29.1856517 26.5926957,29.0064831 26.3257217,28.8514045 L18.0906609,24.0650449 C17.5544696,23.7541348 16.8545043,23.599809 16.1537913,23.599809 C15.5390783,23.599809 14.9236174,23.718 14.418087,23.9536292 L13.0428348,24.7493483 L12.5470261,24.4534944 L14.3477913,23.4070899 C14.8862261,23.0939213 15.5936696,22.9380899 16.3003652,22.9380899 C17.0078087,22.9380899 17.7152522,23.0939213 18.2529391,23.4070899 L26.4894957,28.1934494 C26.8611652,28.4095056 27.1012174,28.6729888 27.2163826,28.9500225 C27.4153043,28.4704831 27.2328348,27.9472809 26.6637391,27.5482921 C27.4085739,28.0699888 27.4960696,28.8047303 26.9262261,29.3761124" id="Fill-198" fill="#2D4F80" mask="url(#mask-2)"></path>
                <path d="M28.2065043,33.7973596 L26.8746261,33.0031461 L28.8668348,31.8453258 C30.2226435,31.0571348 30.8059478,29.9881461 30.6212348,28.9575506 C30.6421739,28.8446292 30.6541391,28.7317079 30.6563826,28.6187865 L30.6563826,32.3737978 C30.6474087,32.3790674 30.6384348,32.3835843 30.6294609,32.3888539 L28.2065043,33.7973596 M26.2329913,32.6192135 L26.2329913,32.6192135 L28.8668348,31.0887528 C28.8713217,31.0857416 28.8758087,31.0834831 28.8802957,31.0804719 C28.8758087,31.0834831 28.8713217,31.0857416 28.8668348,31.0887528 L26.2329913,32.6192135 M28.908713,31.0639101 C28.9408696,31.0450899 28.9722783,31.0255169 29.003687,31.0066966 C28.9722783,31.0255169 28.9408696,31.0450899 28.908713,31.0639101" id="Fill-200" fill="#4E6990" mask="url(#mask-2)"></path>
                <path d="M23.886313,31.2197416 L13.0428348,24.7493483 L14.418087,23.9536292 C14.9236174,23.718 15.5390783,23.599809 16.1537913,23.599809 C16.8545043,23.599809 17.5544696,23.7541348 18.0906609,24.0650449 L26.3257217,28.8514045 C26.5926957,29.0064831 26.7923652,29.1856517 26.9262261,29.3761124 C26.8088174,29.4943034 26.6629913,29.6057191 26.4894957,29.7065955 L23.886313,31.2197416" id="Fill-201" fill="#5B6F91" mask="url(#mask-2)"></path>
                <path d="M26.2329913,32.6192135 L23.886313,31.2197416 L26.4894957,29.7065955 C26.6629913,29.6057191 26.8088174,29.4943034 26.9262261,29.3761124 C27.4960696,28.8047303 27.4085739,28.0699888 26.6637391,27.5482921 C26.6622435,27.5475393 26.6607478,27.5460337 26.6592522,27.5452809 C26.6577565,27.5437753 26.6562609,27.5430225 26.6547652,27.5422697 C26.6517739,27.5400112 26.6487826,27.5377528 26.6457913,27.5354944 C26.6450435,27.5354944 26.6442957,27.5347416 26.6442957,27.5347416 C26.6413043,27.5324831 26.6375652,27.5302247 26.6345739,27.5279663 C26.6338261,27.5279663 26.6338261,27.5279663 26.6338261,27.5272135 C26.5919478,27.4993596 26.5485739,27.4715056 26.5029565,27.4451573 C26.5022087,27.4444045 26.5022087,27.4444045 26.5014609,27.4444045 C26.4977217,27.4421461 26.4932348,27.4391348 26.4894957,27.4368764 L18.2529391,22.6505169 C17.7152522,22.3373483 17.0078087,22.180764 16.3003652,22.180764 C15.5936696,22.180764 14.8862261,22.3373483 14.3477913,22.6505169 L11.9046435,24.0703146 L9.55871304,22.6700899 L11.9704522,21.2683596 C13.1647304,20.5750225 14.7329217,20.2279775 16.301113,20.2279775 C17.8685565,20.2279775 19.4367478,20.5750225 20.6310261,21.2683596 L28.8668348,26.0547191 C30.0805565,26.7608539 30.6773217,27.6920787 30.6563826,28.6187865 C30.6541391,28.7317079 30.6421739,28.8446292 30.6212348,28.9575506 C30.6212348,28.9552921 30.620487,28.9522809 30.620487,28.9500225 C30.4881217,29.6764831 29.975113,30.3833708 29.0784696,30.9592697 C29.0769739,30.9600225 29.0762261,30.9607753 29.0754783,30.9615281 C29.072487,30.9630337 29.0702435,30.9645393 29.0672522,30.9667978 C29.0657565,30.9675506 29.063513,30.9690562 29.0612696,30.969809 C29.0597739,30.9713146 29.0575304,30.9728202 29.0560348,30.973573 C29.0522957,30.9758315 29.0493043,30.9780899 29.0455652,30.9803483 C29.0448174,30.9803483 29.0440696,30.9811011 29.0433217,30.9818539 C29.0306087,30.9901348 29.0171478,30.9984157 29.003687,31.0066966 C28.9722783,31.0255169 28.9408696,31.0450899 28.908713,31.0639101 C28.908713,31.0639101 28.908713,31.0639101 28.9079652,31.0646629 C28.9042261,31.0669213 28.8997391,31.0691798 28.8952522,31.072191 C28.8952522,31.072191 28.8945043,31.072191 28.8937565,31.0729438 C28.8900174,31.0752022 28.8855304,31.0774607 28.8817913,31.0797191 C28.8810435,31.0804719 28.8810435,31.0804719 28.8802957,31.0804719 C28.8758087,31.0834831 28.8713217,31.0857416 28.8668348,31.0887528 L26.2329913,32.6192135" id="Fill-202" fill="#4E6990" mask="url(#mask-2)"></path>
                <path d="M27.2163826,28.9500225 C27.1012174,28.6729888 26.8611652,28.4095056 26.4894957,28.1934494 L18.2529391,23.4070899 C17.7152522,23.0939213 17.0078087,22.9380899 16.3003652,22.9380899 C15.5936696,22.9380899 14.8862261,23.0939213 14.3477913,23.4070899 L12.5470261,24.4534944 L11.9046435,24.0703146 L14.3477913,22.6505169 C14.8862261,22.3373483 15.5936696,22.180764 16.3003652,22.180764 C17.0078087,22.180764 17.7152522,22.3373483 18.2529391,22.6505169 L26.4894957,27.4368764 C26.4932348,27.4391348 26.4977217,27.4421461 26.5014609,27.4444045 C26.5022087,27.4444045 26.5022087,27.4444045 26.5029565,27.4451573 C26.5485739,27.4715056 26.5919478,27.4993596 26.6338261,27.5272135 C26.6338261,27.5279663 26.6338261,27.5279663 26.6345739,27.5279663 C26.6375652,27.5302247 26.6413043,27.5324831 26.6442957,27.5347416 C26.6450435,27.5347416 26.6450435,27.5354944 26.6457913,27.5354944 C26.6487826,27.5377528 26.6517739,27.5400112 26.6547652,27.5422697 C26.6562609,27.5430225 26.6577565,27.5437753 26.6592522,27.5452809 C26.6607478,27.5460337 26.6622435,27.5475393 26.6637391,27.5482921 C27.2328348,27.9472809 27.4153043,28.4704831 27.2163826,28.9500225" id="Fill-203" fill="#5B6F91" mask="url(#mask-2)"></path>
                <path d="M26.8746261,33.0031461 L26.2329913,32.6192135 L28.8668348,31.0887528 C28.8713217,31.0857416 28.8758087,31.0834831 28.8802957,31.0804719 C28.8810435,31.0804719 28.8810435,31.0804719 28.8817913,31.0797191 C28.8862783,31.0774607 28.8900174,31.0752022 28.8937565,31.0729438 C28.8945043,31.072191 28.8952522,31.072191 28.8952522,31.072191 C28.8997391,31.0691798 28.9042261,31.0669213 28.9079652,31.0646629 C28.908713,31.0639101 28.908713,31.0639101 28.908713,31.0639101 C28.9408696,31.0450899 28.9722783,31.0255169 29.003687,31.0066966 C29.0171478,30.9984157 29.0306087,30.9901348 29.0433217,30.9818539 C29.0440696,30.9811011 29.0448174,30.9803483 29.0455652,30.9803483 C29.0493043,30.9780899 29.0522957,30.9758315 29.0560348,30.973573 C29.0575304,30.9728202 29.0597739,30.9713146 29.0612696,30.969809 C29.063513,30.9690562 29.0650087,30.9675506 29.0672522,30.9667978 C29.0702435,30.9645393 29.072487,30.9630337 29.0754783,30.9615281 C29.0762261,30.9607753 29.0769739,30.9600225 29.0784696,30.9592697 C29.975113,30.3833708 30.4881217,29.6764831 30.620487,28.9500225 C30.620487,28.9522809 30.6212348,28.9552921 30.6212348,28.9575506 C30.8059478,29.9881461 30.2226435,31.0571348 28.8668348,31.8453258 L26.8746261,33.0031461" id="Fill-204" fill="#5B6F91" mask="url(#mask-2)"></path>
                <path d="M45.5852348,40.4966067 C45.4513739,40.3061461 45.2517043,40.1269775 44.9847304,39.9718989 L36.7496696,35.1847865 C36.2142261,34.8746292 35.5142609,34.7203034 34.8135478,34.7203034 C34.1988348,34.7203034 33.5833739,34.8384944 33.0770957,35.0748764 L31.6906261,35.876618 L31.1948174,35.580764 L33.0068,34.5275843 C33.5452348,34.2144157 34.2526783,34.0578315 34.9601217,34.0578315 C35.6675652,34.0578315 36.3742609,34.2144157 36.9126957,34.5268315 L45.1485043,39.3139438 C45.5201739,39.53 45.7609739,39.7927303 45.8753913,40.0712697 C46.0877739,39.5593596 45.8664174,38.9992697 45.206087,38.592 C46.057113,39.1174607 46.1842435,39.8958652 45.5852348,40.4966067" id="Fill-205" fill="#452B69" mask="url(#mask-2)"></path>
                <path d="M47.7569217,45.4628876 L45.5224174,44.1296629 L47.5258435,42.9650674 C48.8816522,42.1776292 49.4649565,41.1086404 49.2802435,40.0780449 C49.299687,39.9741573 49.3116522,39.8695169 49.3153913,39.7656292 L49.3153913,44.5572584 L47.7569217,45.4628876 M44.8800348,43.7464831 L44.8800348,43.7464831 L47.5258435,42.2084944 C47.5295826,42.206236 47.5340696,42.2039775 47.5378087,42.2017191 C47.5340696,42.2039775 47.5295826,42.206236 47.5258435,42.2084944 L44.8800348,43.7464831" id="Fill-206" fill="#523470" mask="url(#mask-2)"></path>
                <path d="M42.5341043,42.3462584 L31.6906261,35.876618 L33.0770957,35.0748764 C33.5833739,34.8384944 34.1988348,34.7203034 34.8135478,34.7203034 C35.5142609,34.7203034 36.2142261,34.8746292 36.7496696,35.1847865 L44.9847304,39.9718989 C45.2517043,40.1269775 45.4513739,40.3061461 45.5852348,40.4966067 C45.4678261,40.6147978 45.322,40.7262135 45.1477565,40.8270899 L42.5341043,42.3462584" id="Fill-207" fill="#5B6F91" mask="url(#mask-2)"></path>
                <path d="M44.8800348,43.7464831 L42.5341043,42.3462584 L45.1477565,40.8270899 C45.322,40.7262135 45.4678261,40.6147978 45.5852348,40.4966067 C46.1842435,39.8958652 46.057113,39.1174607 45.206087,38.592 C45.2053391,38.5912472 45.2045913,38.5904944 45.2038435,38.5904944 C45.2001043,38.588236 45.197113,38.5859775 45.1933739,38.5837191 C45.1918783,38.5829663 45.1903826,38.5822135 45.188887,38.5807079 C45.1866435,38.5799551 45.1851478,38.5792022 45.1836522,38.5776966 C45.1814087,38.576191 45.1784174,38.5746854 45.1761739,38.5739326 C45.1754261,38.5731798 45.1739304,38.572427 45.1724348,38.5716742 C45.1694435,38.5694157 45.1664522,38.5671573 45.162713,38.5656517 C45.1619652,38.5648989 45.1604696,38.5641461 45.1597217,38.5633933 C45.1559826,38.5618876 45.1522435,38.5596292 45.1485043,38.5573708 L36.9126957,33.7702584 C36.3742609,33.4578427 35.6668174,33.3012584 34.9601217,33.3012584 C34.2526783,33.3012584 33.5452348,33.4578427 33.0068,33.7702584 L30.5524348,35.1968315 L28.2065043,33.7973596 L30.6294609,32.3888539 C30.6384348,32.3835843 30.6474087,32.3790674 30.6563826,32.3737978 C31.8469217,31.6902472 33.4038957,31.3484719 34.9601217,31.3484719 C36.528313,31.3484719 38.0965043,31.6955169 39.2900348,32.3888539 L47.5258435,37.1759663 C48.7515304,37.8881236 49.3482957,38.8298876 49.3153913,39.7656292 C49.3116522,39.8695169 49.299687,39.9741573 49.2802435,40.0780449 C49.2802435,40.0757865 49.2794957,40.0735281 49.2794957,40.0712697 C49.1381565,40.8466629 48.5630783,41.5994719 47.5497739,42.1949438 C47.5497739,42.1949438 47.5497739,42.1949438 47.5490261,42.1949438 C47.545287,42.1972022 47.5415478,42.1994607 47.5378087,42.2017191 C47.5340696,42.2039775 47.5295826,42.206236 47.5258435,42.2084944 L44.8800348,43.7464831" id="Fill-208" fill="#523470" mask="url(#mask-2)"></path>
                <path d="M45.8753913,40.0712697 C45.7609739,39.7927303 45.5201739,39.53 45.1485043,39.3139438 L36.9126957,34.5268315 C36.3742609,34.2144157 35.6675652,34.0578315 34.9601217,34.0578315 C34.2526783,34.0578315 33.5452348,34.2144157 33.0068,34.5275843 L31.1948174,35.580764 L30.5524348,35.1968315 L33.0068,33.7702584 C33.5452348,33.4578427 34.2526783,33.3012584 34.9601217,33.3012584 C35.6668174,33.3012584 36.3742609,33.4578427 36.9126957,33.7702584 L45.1485043,38.5573708 C45.1522435,38.5596292 45.1559826,38.5618876 45.1597217,38.5633933 C45.1604696,38.5641461 45.1619652,38.5648989 45.162713,38.5656517 C45.1664522,38.5671573 45.1694435,38.5694157 45.1724348,38.5716742 C45.1739304,38.572427 45.1754261,38.5731798 45.1761739,38.5739326 C45.1784174,38.5746854 45.1814087,38.576191 45.1836522,38.5776966 C45.1851478,38.5792022 45.1866435,38.5799551 45.188887,38.5807079 C45.1903826,38.5822135 45.1918783,38.5829663 45.1933739,38.5837191 C45.197113,38.5859775 45.2001043,38.588236 45.2038435,38.5904944 C45.2045913,38.5904944 45.2053391,38.5912472 45.206087,38.592 C45.8664174,38.9992697 46.0877739,39.5593596 45.8753913,40.0712697" id="Fill-209" fill="#5B6F91" mask="url(#mask-2)"></path>
                <path d="M45.5224174,44.1296629 L44.8800348,43.7464831 L47.5258435,42.2084944 C47.5295826,42.206236 47.5340696,42.2039775 47.5378087,42.2017191 C47.5415478,42.1994607 47.545287,42.1972022 47.5490261,42.1949438 L47.5497739,42.1949438 C48.5630783,41.5994719 49.1381565,40.8466629 49.2794957,40.0712697 C49.2794957,40.0735281 49.2802435,40.0757865 49.2802435,40.0780449 C49.4649565,41.1086404 48.8816522,42.1776292 47.5258435,42.9650674 L45.5224174,44.1296629" id="Fill-210" fill="#5B6F91" mask="url(#mask-2)"></path>
                <path d="M48.602713,122.052169 L49.0633739,120.159607 L53.5181739,117.594034 L54.8956696,118.395022 L48.602713,122.052169 M57.5182957,116.870584 L56.1527652,116.077124 L68.4881565,108.974371 L68.4881565,108.94727 C68.520313,109.881506 67.9235478,110.822517 66.6993565,111.534674 L57.5182957,116.870584" id="Fill-211" fill="#4E6990" mask="url(#mask-2)"></path>
                <polyline id="Fill-212" fill="#D4EAF2" mask="url(#mask-2)" points="54.8956696 118.395022 53.5181739 117.594034 56.1527652 116.077124 57.5182957 116.870584 54.8956696 118.395022"></polyline>
                <path d="M64.7587478,52.3819551 C64.624887,52.1907416 64.4244696,52.011573 64.1582435,51.8572472 L55.9224348,47.0701348 C55.3869913,46.7592247 54.6870261,46.6048989 53.9855652,46.6048989 C53.3716,46.6048989 52.7561391,46.7238427 52.2498609,46.9594719 L51.2425391,47.5421461 L50.7459826,47.2462921 L52.180313,46.4121798 C52.7187478,46.099764 53.4261913,45.9431798 54.132887,45.9431798 C54.8403304,45.9431798 55.5477739,46.099764 56.0854609,46.4121798 L64.3220174,51.1992921 C64.693687,51.4153483 64.9337391,51.6788315 65.0489043,51.9558652 C65.2463304,51.4793371 65.0676,50.9598989 64.5082261,50.5624157 C65.2418435,51.0833596 65.3256,51.8128315 64.7587478,52.3819551" id="Fill-213" fill="#2D4F80" mask="url(#mask-2)"></path>
                <path d="M49.0633739,120.159607 L55.4326087,93.9821798 L57.7807826,92.6173371 L57.7807826,84.3311685 L64.6660174,56.0323258 L66.6993565,54.8504157 C68.0551652,54.0622247 68.6384696,52.9939888 68.4537565,51.9626404 C68.4732,51.858 68.4844174,51.7533596 68.4881565,51.6479663 L68.4881565,108.974371 L56.1527652,116.077124 L53.0605043,114.280169 L52.5235652,117.015876 L53.5181739,117.594034 L49.0633739,120.159607 M64.4312,55.4120112 L64.4312,55.4120112 L66.6993565,54.0938427 C66.7038435,54.0915843 66.7083304,54.088573 66.7128174,54.0863146 C66.7083304,54.088573 66.7038435,54.0915843 66.6993565,54.0938427 L64.4312,55.4120112 M66.7412348,54.0697528 C66.7733913,54.0501798 66.8048,54.0313596 66.8362087,54.0117865 C66.8048,54.0313596 66.7733913,54.0509326 66.7412348,54.0697528" id="Fill-214" fill="#4E6990" mask="url(#mask-2)"></path>
                <polyline id="Fill-215" fill="#D4EAF2" mask="url(#mask-2)" points="53.5181739 117.594034 52.5235652 117.015876 53.0605043 114.280169 56.1527652 116.077124 53.5181739 117.594034"></polyline>
                <path d="M62.0845217,54.0117865 L51.2425391,47.5421461 L52.2498609,46.9594719 C52.7561391,46.7238427 53.3716,46.6048989 53.9855652,46.6048989 C54.6870261,46.6048989 55.3869913,46.7592247 55.9224348,47.0701348 L64.1582435,51.8572472 C64.4244696,52.011573 64.624887,52.1907416 64.7587478,52.3819551 C64.6405913,52.5001461 64.4947652,52.610809 64.3212696,52.7124382 L62.0845217,54.0117865" id="Fill-216" fill="#5B6F91" mask="url(#mask-2)"></path>
                <path d="M64.4312,55.4120112 L62.0845217,54.0117865 L64.3212696,52.7124382 C64.4947652,52.610809 64.6405913,52.5001461 64.7587478,52.3819551 C65.3256,51.8128315 65.2418435,51.0833596 64.5082261,50.5624157 C64.5037391,50.5594045 64.5,50.5563933 64.4962609,50.5541348 C64.4947652,50.5526292 64.4932696,50.5518764 64.4910261,50.5503708 C64.4902783,50.549618 64.4887826,50.5488652 64.487287,50.5473596 C64.4842957,50.5458539 64.4813043,50.5435955 64.478313,50.5413371 C64.4775652,50.5405843 64.4768174,50.5405843 64.4768174,50.5405843 C64.4738261,50.5383258 64.470087,50.5360674 64.4670957,50.533809 C64.4663478,50.5330562 64.4663478,50.5330562 64.4656,50.5330562 C64.4244696,50.5044494 64.3803478,50.4773483 64.3347304,50.4502472 C64.3347304,50.4502472 64.3339826,50.4502472 64.3339826,50.4494944 C64.3302435,50.447236 64.3257565,50.4449775 64.3220174,50.4427191 L56.0854609,45.6563596 C55.5477739,45.343191 54.8403304,45.1866067 54.132887,45.1866067 C53.4261913,45.1866067 52.7187478,45.343191 52.180313,45.6563596 L50.1036,46.8631124 L47.7569217,45.4628876 L49.3153913,44.5572584 L49.8029739,44.2742022 C50.9965043,43.5801124 52.5646957,43.2330674 54.132887,43.2330674 C55.7010783,43.2330674 57.2692696,43.5801124 58.4635478,44.2742022 L66.6993565,49.0605618 C67.9235478,49.7727191 68.520313,50.7129775 68.4881565,51.6479663 C68.4844174,51.7533596 68.4732,51.858 68.4537565,51.9626404 C68.4530087,51.960382 68.4530087,51.9581236 68.4522609,51.9558652 C68.3198957,52.681573 67.8076348,53.3892135 66.9109913,53.9651124 C66.9094957,53.9658652 66.9087478,53.9658652 66.908,53.966618 C66.9050087,53.9688764 66.9020174,53.970382 66.8997739,53.9718876 C66.8975304,53.9733933 66.8960348,53.9748989 66.8937913,53.9756517 C66.8922957,53.9771573 66.8900522,53.9779101 66.8885565,53.9794157 C66.8848174,53.9816742 66.8810783,53.9839326 66.878087,53.986191 C66.8773391,53.986191 66.8765913,53.9869438 66.8758435,53.9869438 C66.8631304,53.9952247 66.8496696,54.0035056 66.8362087,54.0117865 C66.8048,54.0313596 66.7733913,54.0501798 66.7412348,54.0697528 C66.740487,54.0697528 66.740487,54.0697528 66.740487,54.0697528 C66.7367478,54.0720112 66.7322609,54.0750225 66.7277739,54.0772809 C66.7270261,54.0780337 66.7270261,54.0780337 66.7262783,54.0780337 C66.7225391,54.0802921 66.7180522,54.0833034 66.714313,54.0855618 C66.7135652,54.0855618 66.7135652,54.0863146 66.7128174,54.0863146 C66.7083304,54.088573 66.7038435,54.0915843 66.6993565,54.0938427 L64.4312,55.4120112" id="Fill-217" fill="#4E6990" mask="url(#mask-2)"></path>
                <polyline id="Fill-218" fill="#5B6F91" mask="url(#mask-2)" points="55.4326087 93.9821798 57.7807826 84.3311685 57.7807826 92.6173371 55.4326087 93.9821798"></polyline>
                <path d="M65.0489043,51.9558652 C64.9337391,51.6788315 64.693687,51.4153483 64.3220174,51.1992921 L56.0854609,46.4121798 C55.5477739,46.099764 54.8403304,45.9431798 54.132887,45.9431798 C53.4261913,45.9431798 52.7187478,46.099764 52.180313,46.4121798 L50.7459826,47.2462921 L50.1036,46.8631124 L52.180313,45.6563596 C52.7187478,45.343191 53.4261913,45.1866067 54.132887,45.1866067 C54.8403304,45.1866067 55.5477739,45.343191 56.0854609,45.6563596 L64.3220174,50.4427191 C64.3257565,50.4449775 64.3302435,50.447236 64.3339826,50.4494944 C64.3339826,50.4502472 64.3347304,50.4502472 64.3347304,50.4502472 C64.3803478,50.4773483 64.4244696,50.5044494 64.4656,50.5330562 C64.4663478,50.5330562 64.4663478,50.5330562 64.4670957,50.533809 C64.470087,50.5360674 64.4738261,50.5383258 64.4768174,50.5405843 C64.4768174,50.5405843 64.4775652,50.5405843 64.478313,50.5413371 C64.4813043,50.5435955 64.4842957,50.5458539 64.487287,50.5473596 C64.4887826,50.5488652 64.4902783,50.549618 64.4910261,50.5503708 C64.4932696,50.5518764 64.4947652,50.5526292 64.4962609,50.5541348 C64.5,50.5563933 64.5037391,50.5594045 64.5082261,50.5624157 C65.0676,50.9598989 65.2463304,51.4793371 65.0489043,51.9558652" id="Fill-219" fill="#5B6F91" mask="url(#mask-2)"></path>
                <path d="M64.6660174,56.0323258 L64.7684696,55.6130112 L64.4312,55.4120112 L66.6993565,54.0938427 C66.7038435,54.0915843 66.7083304,54.088573 66.7128174,54.0863146 C66.7135652,54.0863146 66.7135652,54.0855618 66.714313,54.0855618 C66.7180522,54.0833034 66.7225391,54.0802921 66.7262783,54.0780337 C66.7270261,54.0780337 66.7270261,54.0780337 66.7277739,54.0772809 C66.7322609,54.0750225 66.7367478,54.0720112 66.740487,54.0697528 C66.740487,54.0697528 66.740487,54.0697528 66.7412348,54.0697528 C66.7733913,54.0509326 66.8048,54.0313596 66.8362087,54.0117865 C66.8496696,54.0035056 66.8631304,53.9952247 66.8758435,53.9869438 C66.8765913,53.9869438 66.8773391,53.986191 66.878087,53.986191 C66.8810783,53.9839326 66.8848174,53.9816742 66.8885565,53.9794157 C66.8900522,53.9779101 66.8922957,53.9771573 66.8937913,53.9756517 C66.8960348,53.9741461 66.8975304,53.9733933 66.8997739,53.9718876 C66.9020174,53.970382 66.9050087,53.9688764 66.908,53.966618 C66.9087478,53.9658652 66.9094957,53.9658652 66.9109913,53.9651124 C67.8076348,53.3892135 68.3198957,52.681573 68.4522609,51.9558652 C68.4530087,51.9581236 68.4530087,51.960382 68.4537565,51.9626404 C68.6384696,52.9939888 68.0551652,54.0622247 66.6993565,54.8504157 L64.6660174,56.0323258" id="Fill-220" fill="#5B6F91" mask="url(#mask-2)"></path>
            </g>
            <g id="Group-262" transform="translate(119.000000, 30.000000)">
                <mask id="mask-4" fill="white">
                    <use xlink:href="#path-3"></use>
                </mask>
                <g id="Clip-223"></g>
                <path d="M107.70075,66.684 C110.09475,68.067 110.09475,70.31625 107.70075,71.69925 L66.99675,95.199 C66.33825,95.57925 65.271,95.57925 64.6125,95.199 C63.95475,94.81875 63.95475,94.203 64.6125,93.82275 L105.3165,70.32225 C106.3965,69.699 106.3965,68.68425 105.3165,68.06025 L101.3715,65.78325 C101.81025,65.124 102.2085,64.43775 102.597,63.73725 L107.70075,66.684" id="Fill-222" fill="#D4EAF2" mask="url(#mask-4)"></path>
                <path d="M50.052,85.416 L90.75525,61.9155 C93.15,60.53325 97.04625,60.5325 99.441,61.9155 L102.597,63.73725 C102.2085,64.43775 101.81025,65.124 101.3715,65.78325 L97.056,63.2925 C95.97675,62.6685 94.2195,62.6685 93.1395,63.2925 L52.4355,86.79225 C51.777,87.1725 50.7105,87.1725 50.052,86.79225 C49.3935,86.41275 49.3935,85.79625 50.052,85.416" id="Fill-224" fill="#5589BB" mask="url(#mask-4)"></path>
                <polyline id="Fill-225" fill="#5589BB" mask="url(#mask-4)" points="49.5615 86.1525 49.55775 28.917 92.21325 5.13825 98.17875 4.7445 103.947 8.48175 107.487 11.562 65.92725 77.46675 52.35825 85.464 49.5615 86.1525"></polyline>
                <polyline id="Fill-226" fill="#76A9CF" mask="url(#mask-4)" points="65.337 93.38175 52.587 86.0205 52.587 30.705 65.73075 36.8145 65.337 93.38175"></polyline>
                <polyline id="Fill-227" fill="#D4EAF2" mask="url(#mask-4)" points="109.4955 12.00525 109.4955 69.14775 64.716 94.761 64.119 94.52175 64.119 37.29525 109.4955 12.00525"></polyline>
                <path d="M84.3105,12.4785 L93.21,7.36425 C94.29675,6.861 95.88525,6.89325 96.89325,7.47525 L105.15225,12.24375 C105.79275,12.61275 106.05,13.11975 105.9315,13.60125 L83.4435,27.039 L65.3805,38.12625 L52.587,30.705 L84.3105,12.4785" id="Fill-228" fill="#FFFFFE" mask="url(#mask-4)"></path>
                <path d="M65.73075,36.39675 L65.73075,95.48025 C65.32425,95.46975 64.923,95.37825 64.6125,95.199 C64.2885,95.01225 64.12575,94.76775 64.1205,94.52325 L64.119,94.52175 L64.119,37.29525 L65.73075,36.39675" id="Fill-229" fill="#5589BB" mask="url(#mask-4)"></path>
                <polyline id="Fill-230" fill="#FFFFFE" mask="url(#mask-4)" points="49.55775 29.631 49.55775 28.917 49.785 28.917 49.85475 29.4015 49.55775 29.631"></polyline>
                <polyline id="Fill-231" fill="#FFFFFE" mask="url(#mask-4)" points="64.11975 38.037 64.11975 37.30575 64.3395 37.6155 64.11975 38.037"></polyline>
                <path d="M66.99675,37.9725 L107.70075,14.47275 C110.09475,13.08975 110.09475,10.8405 107.70075,9.4575 L99.441,4.689 C97.04625,3.30675 93.15,3.30675 90.75525,4.689 L50.052,28.1895 C49.3935,28.56975 49.3935,29.18625 50.052,29.5665 C50.7105,29.946 51.777,29.946 52.4355,29.5665 L93.1395,6.066 C94.2195,5.442 95.97675,5.442 97.056,6.066 L105.3165,10.8345 C106.3965,11.45775 106.3965,12.4725 105.3165,13.09575 L64.6125,36.59625 C63.95475,36.9765 63.95475,37.593 64.6125,37.97325 C65.271,38.35275 66.33825,38.35275 66.99675,37.9725" id="Fill-232" fill="#D4EAF2" mask="url(#mask-4)"></path>
                <polyline id="Fill-233" fill="#FFFFFE" mask="url(#mask-4)" points="77.60475 65.064 98.75625 52.8525 98.75625 31.6485 77.60475 43.86075 77.60475 65.064"></polyline>
                <path d="M50.052,29.5665 C50.7105,29.946 51.777,29.946 52.4355,29.5665 L93.1395,6.066 C94.2195,5.442 95.97675,5.442 97.056,6.066 L105.3165,10.8345 C106.02375,11.2425 106.2645,11.8185 106.0455,12.342 C105.93,12.066 105.68925,11.8035 105.3165,11.58825 L97.056,6.81975 C95.97675,6.1965 94.2195,6.1965 93.1395,6.81975 L52.4355,30.32025 C51.777,30.7005 50.7105,30.7005 50.052,30.32025 C49.55325,30.03225 49.43325,29.6085 49.69125,29.2545 C49.77375,29.36775 49.89225,29.47425 50.052,29.5665" id="Fill-234" fill="#FFFFFE" mask="url(#mask-4)"></path>
                <path d="M64.6125,37.97325 C65.271,38.35275 66.33825,38.35275 66.99675,37.9725 L107.70075,14.47275 C108.732,13.87725 109.31625,13.1205 109.4595,12.342 C109.6485,13.371 109.0635,14.439 107.70075,15.2265 L66.99675,38.727 C66.33825,39.10725 65.271,39.10725 64.6125,38.727 C64.11375,38.439 63.9945,38.016 64.25175,37.66125 C64.33425,37.7745 64.4535,37.881 64.6125,37.97325" id="Fill-235" fill="#FFFFFE" mask="url(#mask-4)"></path>
                <path d="M126.414,77.763 C128.808,79.14525 128.808,81.39525 126.414,82.7775 L85.71075,106.278 C85.05225,106.65825 83.98425,106.65825 83.32575,106.278 C82.66725,105.89775 82.66725,105.28125 83.32575,104.901 L124.029,81.40125 C125.10975,80.77725 125.10975,79.76325 124.02975,79.14 L120.0855,76.86225 C120.5235,76.20375 120.92175,75.5175 121.31025,74.817 L126.414,77.763" id="Fill-236" fill="#DA3685" mask="url(#mask-4)"></path>
                <path d="M68.76525,96.495 L109.4685,72.9945 C111.864,71.6115 115.7595,71.6115 118.15425,72.9945 L121.31025,74.817 C120.92175,75.5175 120.5235,76.20375 120.0855,76.86225 L115.77,74.37075 C114.69,73.7475 112.93275,73.7475 111.85275,74.37075 L71.14875,97.87125 C70.491,98.2515 69.42375,98.2515 68.76525,97.87125 C68.10675,97.491 68.10675,96.8745 68.76525,96.495" id="Fill-237" fill="#BC187A" mask="url(#mask-4)"></path>
                <polyline id="Fill-238" fill="#BC187A" mask="url(#mask-4)" points="68.27475 97.23225 68.27175 39.996 110.92725 16.21725 116.892 15.82425 122.66025 19.56 126.20025 22.64175 84.6405 88.54575 71.0715 96.543 68.27475 97.23225"></polyline>
                <polyline id="Fill-239" fill="#D46C9E" mask="url(#mask-4)" points="84.051 104.46 71.301 97.0995 71.301 41.784 84.444 47.89275 84.051 104.46"></polyline>
                <polyline id="Fill-240" fill="#DA3685" mask="url(#mask-4)" points="128.20875 23.08425 128.20875 80.22675 83.43 105.84 82.833 105.60075 82.833 48.37425 128.20875 23.08425"></polyline>
                <path d="M103.02375,23.55675 L111.92325,18.444 C113.01,17.94075 114.5985,17.973 115.6065,18.5535 L123.86625,23.32275 C124.50525,23.6925 124.76325,24.19875 124.6455,24.6795 L102.15675,38.11725 L84.09375,49.20525 L71.301,41.784 L103.02375,23.55675" id="Fill-241" fill="#FFFFFE" mask="url(#mask-4)"></path>
                <path d="M84.444,47.4765 L84.444,106.55925 C84.0375,106.54875 83.63625,106.45725 83.32575,106.278 C83.00175,106.09125 82.839,105.8475 82.8345,105.60225 L82.833,105.60075 L82.833,48.37425 L84.444,47.4765" id="Fill-242" fill="#BC187A" mask="url(#mask-4)"></path>
                <polyline id="Fill-243" fill="#FFFFFE" mask="url(#mask-4)" points="68.27175 40.70925 68.27175 39.996 68.49825 39.996 68.568 40.4805 68.27175 40.70925"></polyline>
                <polyline id="Fill-244" fill="#FFFFFE" mask="url(#mask-4)" points="82.83375 49.116 82.83375 48.38475 83.0535 48.69525 82.83375 49.116"></polyline>
                <path d="M85.71075,49.0515 L126.414,25.551 C128.808,24.1695 128.808,21.9195 126.414,20.53725 L118.15425,15.768 C115.7595,14.38575 111.864,14.38575 109.4685,15.768 L68.76525,39.2685 C68.10675,39.64875 68.10675,40.26525 68.76525,40.64475 C69.42375,41.025 70.491,41.025 71.14875,40.64475 L111.85275,17.14425 C112.93275,16.521 114.69,16.521 115.77,17.14425 L124.02975,21.9135 C125.10975,22.5375 125.10975,23.55075 124.029,24.17475 L83.32575,47.67525 C82.668,48.0555 82.66725,48.672 83.32575,49.0515 C83.98425,49.43175 85.05225,49.43175 85.71075,49.0515" id="Fill-245" fill="#DA3685" mask="url(#mask-4)"></path>
                <polyline id="Fill-246" fill="#FFFFFE" mask="url(#mask-4)" points="96.318 76.143 117.4695 63.9315 117.4695 42.7275 96.318 54.939 96.318 76.143"></polyline>
                <path d="M68.76525,40.64475 C69.42375,41.025 70.491,41.025 71.14875,40.64475 L111.85275,17.14425 C112.93275,16.521 114.69,16.521 115.77,17.14425 L124.02975,21.9135 C124.737,22.32225 124.97775,22.89675 124.75875,23.42175 C124.644,23.14425 124.4025,22.8825 124.02975,22.66725 L115.77,17.898 C114.69,17.27475 112.93275,17.27475 111.85275,17.89875 L71.14875,41.3985 C70.491,41.77875 69.42375,41.77875 68.76525,41.3985 C68.2665,41.11125 68.14725,40.6875 68.4045,40.3335 C68.487,40.44675 68.6055,40.5525 68.76525,40.64475" id="Fill-247" fill="#FFFFFE" mask="url(#mask-4)"></path>
                <path d="M83.32575,49.0515 C83.98425,49.43175 85.05225,49.43175 85.71075,49.0515 L126.414,25.551 C127.44525,24.9555 128.0295,24.20025 128.17275,23.42175 C128.36175,24.45075 127.77675,25.518 126.414,26.30475 L85.71075,49.80525 C85.05225,50.1855 83.98425,50.1855 83.32575,49.80525 C82.827,49.51725 82.7085,49.09425 82.965,48.74025 C83.0475,48.8535 83.16675,48.95925 83.32575,49.0515" id="Fill-248" fill="#FFFFFE" mask="url(#mask-4)"></path>
                <path d="M145.64325,89.604 C148.03725,90.98625 148.03725,93.23625 145.64325,94.6185 L104.9385,118.11825 C104.28075,118.4985 103.21275,118.4985 102.555,118.11825 C101.8965,117.738 101.8965,117.12225 102.555,116.742 L143.25825,93.2415 C144.33825,92.61825 144.33825,91.60425 143.259,90.98025 L139.314,88.70325 C139.75275,88.044 140.15025,87.35775 140.5395,86.65725 L145.64325,89.604" id="Fill-249" fill="#D4EAF2" mask="url(#mask-4)"></path>
                <path d="M87.99375,108.33525 L128.69775,84.83475 C131.09175,83.45325 134.98875,83.4525 137.3835,84.83475 L140.5395,86.65725 C140.15025,87.35775 139.75275,88.044 139.314,88.70325 L134.9985,86.21175 C133.91925,85.58775 132.162,85.58775 131.082,86.21175 L90.378,109.7115 C89.7195,110.09175 88.65225,110.09175 87.99375,109.7115 C87.336,109.332 87.336,108.7155 87.99375,108.33525" id="Fill-250" fill="#5589BB" mask="url(#mask-4)"></path>
                <polyline id="Fill-251" fill="#5589BB" mask="url(#mask-4)" points="87.504 109.0725 87.50025 51.83625 130.15575 28.0575 136.1205 27.6645 141.8895 31.401 145.4295 34.482 103.869 100.38675 90.30075 108.384 87.504 109.0725"></polyline>
                <polyline id="Fill-252" fill="#76A9CF" mask="url(#mask-4)" points="103.2795 116.301 90.5295 108.9405 90.5295 53.62425 103.67325 59.7345 103.2795 116.301"></polyline>
                <polyline id="Fill-253" fill="#D4EAF2" mask="url(#mask-4)" points="147.43725 34.9245 147.43725 92.06775 102.6585 117.68025 102.0615 117.44175 102.0615 60.2145 147.43725 34.9245"></polyline>
                <path d="M122.25225,35.39775 L131.15175,30.28425 C132.2385,29.781 133.82775,29.81325 134.83575,30.3945 L143.09475,35.16375 C143.7345,35.53275 143.9925,36.03975 143.874,36.5205 L121.386,49.95825 L103.323,61.04625 L90.5295,53.62425 L122.25225,35.39775" id="Fill-254" fill="#FFFFFE" mask="url(#mask-4)"></path>
                <path d="M103.67325,59.31675 L103.67325,118.3995 C103.26675,118.38975 102.8655,118.29825 102.555,118.11825 C102.231,117.9315 102.06825,117.68775 102.063,117.44325 L102.0615,117.44175 L102.0615,60.2145 L103.67325,59.31675" id="Fill-255" fill="#5589BB" mask="url(#mask-4)"></path>
                <polyline id="Fill-256" fill="#FFFFFE" mask="url(#mask-4)" points="87.50025 52.55025 87.50025 51.83625 87.7275 51.83625 87.79725 52.3215 87.50025 52.55025"></polyline>
                <polyline id="Fill-257" fill="#FFFFFE" mask="url(#mask-4)" points="102.06225 60.95625 102.06225 60.225 102.282 60.5355 102.06225 60.95625"></polyline>
                <path d="M104.9385,60.8925 L145.64325,37.39275 C148.03725,36.00975 148.03725,33.7605 145.64325,32.3775 L137.3835,27.609 C134.98875,26.22675 131.09175,26.22675 128.69775,27.609 L87.99375,51.1095 C87.336,51.489 87.336,52.10625 87.99375,52.4865 C88.65225,52.86525 89.7195,52.86525 90.378,52.48575 L131.082,28.986 C132.162,28.36125 133.91925,28.36125 134.9985,28.986 L143.259,33.7545 C144.33825,34.37775 144.33825,35.3925 143.25825,36.01575 L102.555,59.51625 C101.8965,59.89575 101.8965,60.513 102.555,60.8925 C103.21275,61.272 104.28075,61.272 104.9385,60.8925" id="Fill-258" fill="#D4EAF2" mask="url(#mask-4)"></path>
                <polyline id="Fill-259" fill="#FFFFFE" mask="url(#mask-4)" points="115.54725 87.984 136.69875 75.77175 136.69875 54.5685 115.54725 66.78 115.54725 87.984"></polyline>
                <path d="M87.99375,52.48575 C88.65225,52.86525 89.7195,52.86525 90.378,52.48575 L131.082,28.986 C132.162,28.36125 133.91925,28.36125 134.9985,28.986 L143.259,33.7545 C143.9655,34.1625 144.207,34.73775 143.988,35.262 C143.8725,34.986 143.63175,34.7235 143.259,34.50825 L134.9985,29.739 C133.91925,29.11575 132.162,29.11575 131.082,29.739 L90.378,53.2395 C89.7195,53.61975 88.65225,53.61975 87.99375,53.2395 C87.495,52.9515 87.37575,52.52775 87.633,52.17375 C87.7155,52.28775 87.83475,52.3935 87.99375,52.48575" id="Fill-260" fill="#FFFFFE" mask="url(#mask-4)"></path>
                <path d="M102.555,60.8925 C103.21275,61.272 104.28075,61.272 104.9385,60.8925 L145.64325,37.39275 C146.6745,36.79725 147.25875,36.0405 147.40125,35.262 C147.59025,36.291 147.006,37.359 145.64325,38.14575 L104.9385,61.64625 C104.28075,62.0265 103.21275,62.0265 102.555,61.64625 C102.0555,61.35825 101.937,60.9345 102.19425,60.5805 C102.276,60.6945 102.396,60.80025 102.555,60.8925" id="Fill-261" fill="#FFFFFE" mask="url(#mask-4)"></path>
            </g>
            <path d="M204.150635,259 C203.088858,259 202.026326,258.769119 201.216022,258.305864 C199.594659,257.380847 199.594659,255.87975 201.216022,254.953986 L276.915601,211.694136 C277.725905,211.230881 278.787682,211 279.849459,211 C280.911992,211 281.973769,211.230881 282.784828,211.694136 C284.40468,212.6199 284.405435,214.120997 282.784828,215.046014 L207.084493,258.306611 C206.27419,258.769119 205.212412,259 204.150635,259" id="Fill-263" fill="#8595AC"></path>
            <path d="M294.953929,188.161059 L294.953929,188.161059 C294.881155,188.039306 294.737123,187.977687 294.596882,188.007383 L290,188.983636 L291.81025,192 L294.917542,188.540425 C295.012299,188.435747 295.026702,188.28207 294.953929,188.161059" id="Fill-264" fill="#D4EAF2"></path>
            <path d="M293,189.927112 C292.994715,189.264816 292.52845,188.461573 291.957236,188.13573 C291.694119,187.983417 291.456488,187.965988 291.275829,188.050101 C286.023216,188.006908 280.857561,189.404247 276.329085,192.09511 L276,192.290616 L281.646165,202 L283.313327,200.88228 C286.841805,198.517261 289.816312,195.400529 292.026951,191.749564 L292.740593,190.571222 C292.902512,190.453009 293.002212,190.234012 293,189.927112" id="Fill-265" fill="#5589BB"></path>
            <path d="M282.99985,199.211115 C282.98015,196.735119 281.173057,193.738211 278.964389,192.516838 C276.75572,191.295465 274.981208,192.312907 275.00015,194.788164 C275.020608,197.264898 276.8277,200.261806 279.036369,201.483179 C281.245038,202.704552 283.018792,201.687111 282.99985,199.211115" id="Fill-266" fill="#D4EAF2"></path>
            <polyline id="Fill-267" fill="#D4EAF2" points="248.641045 223 282 201.768648 276.379104 192 242 211.457244 248.641045 223"></polyline>
            <path d="M248.999814,220.653774 C248.977448,217.682282 246.945065,214.085725 244.459598,212.620238 C241.97413,211.154752 239.977821,212.374865 240.000186,215.346358 C240.022552,218.317851 242.054935,221.914408 244.540402,223.379894 C247.025148,224.84538 249.02218,223.624517 248.999814,220.653774" id="Fill-268" fill="#D4EAF2"></path>
            <path d="M247.999802,221.653037 C247.978156,218.68229 245.945612,215.085728 243.459949,213.620239 C240.974286,212.154751 238.977819,213.374866 239.000186,216.346363 C239.022553,219.31711 241.055097,222.914422 243.54076,224.379911 C246.025702,225.845399 248.022891,224.624534 247.999802,221.653037" id="Fill-269" fill="#D4EAF2"></path>
            <polyline id="Fill-270" fill="#D4EAF2" points="201.67137 250 246 224.225827 239.32938 213 195 238.774173 201.67137 250"></polyline>
            <path d="M202.999814,247.653779 C202.97817,244.682291 200.945065,241.085739 198.459598,239.620255 C195.97413,238.154771 193.977821,239.374882 194.000186,242.34562 C194.02183,245.317109 196.055657,248.91366 198.540402,250.379895 C201.025148,251.845379 203.02218,250.624517 202.999814,247.653779" id="Fill-271" fill="#D4EAF2"></path>
            <path d="M201.994164,246.15469 C201.893212,244.451183 200.469414,242.330177 198.815297,241.416491 C197.161179,240.502804 195.903392,241.14253 196.00584,242.84531 C196.106792,244.548817 197.530589,246.669823 199.184706,247.583509 C200.838076,248.497196 202.096611,247.85747 201.994164,246.15469" id="Fill-272" fill="#3B6397"></path>
            <path d="M249.927626,220.342894 C249.903006,217.345891 247.665767,213.716785 244.930569,212.238344 C243.82823,211.643334 242.81643,211.494203 242,211.716007 C242.887113,210.831819 244.343661,210.727352 246.001934,211.622895 C248.737132,213.101335 250.97596,216.730442 250.999786,219.727445 C251.014875,221.517774 250.232596,222.670701 249.021453,223 C249.598036,222.424672 249.937156,221.524587 249.927626,220.342894" id="Fill-273" fill="#FFFFFE"></path>
            <path d="M249.999785,219.549459 C249.975494,216.613569 247.768172,213.060105 245.069549,211.612178 C243.719455,210.888585 242.502567,210.828533 241.62575,211.315623 L239,212.776154 L240.251365,214.789018 C240.480168,217.459491 242.368576,220.499916 244.722427,221.986395 L245.973791,224 L248.599541,222.540211 C249.476359,222.052378 250.012322,221.017403 249.999785,219.549459" id="Fill-274" fill="#5589BB"></path>
            <path d="M246.999826,221.653737 C246.977462,218.682212 244.944515,215.085615 242.459961,213.620113 C239.974687,212.154611 237.978532,213.375487 238.000174,216.346263 C238.02326,219.317788 240.055485,222.914385 242.540039,224.379887 C245.025313,225.845389 247.021468,224.624513 246.999826,221.653737" id="Fill-275" fill="#D4EAF2"></path>
            <path d="M200,247.98161 L197.053279,243 L187.434995,248.619183 C186.049883,249.427589 185.587923,251.198455 186.401341,252.573508 C187.215526,253.950086 188.996604,254.409962 190.38095,253.600793 L200,247.98161" id="Fill-276" fill="#DA3685"></path>
            <path d="M199.999922,246.605685 C199.99026,245.36788 199.086542,243.868454 197.982163,243.258248 C196.877041,242.648042 195.990417,243.156064 196.000078,244.393869 C196.010483,245.632399 196.913458,247.1311 198.01858,247.741307 C199.122216,248.352237 200.009583,247.844215 199.999922,246.605685" id="Fill-277" fill="#DA3685"></path>
            <path d="M210.596275,229.042625 L209.197365,228.247797 C208.393308,227.790304 207.330911,227.905237 206.204487,228.567967 L201.408438,231.393527 C200.503874,231.927144 199.773523,233.217528 199.781712,234.270583 L199.800325,236.676712 C199.803303,237.08047 199.606755,237.543934 199.317891,237.885001 L199.497314,239 L198.302397,238.313387 L198.305375,238.311149 C198.131907,238.223829 198.021721,238.021577 198.019488,237.726035 L198,235.319906 C197.983752,233.125731 199.505504,230.434508 201.392804,229.322495 L206.188108,226.496935 C207.790266,225.552843 209.302339,225.391638 210.445887,226.040935 L211.844796,226.836509 C212.648853,227.29251 213.711995,227.179069 214.839163,226.514846 L234.168537,215.125288 C234.418688,214.977517 234.644271,214.965576 234.80806,215.062597 L234.80806,215.061104 L236,215.746224 L234.979295,216.14028 C234.83784,216.570159 234.537808,216.988844 234.184916,217.19632 L214.854798,228.586625 C213.25264,229.530717 211.739822,229.692668 210.596275,229.042625" id="Fill-278" fill="#5589BB"></path>
            <path d="M210.17707,228.608671 C209.374471,228.140241 208.313999,228.256773 207.189617,228.939102 L202.40226,231.841684 C201.499336,232.389847 200.770308,233.714638 200.778483,234.796398 L200.797062,237.268116 C200.80152,237.855378 200.407652,238.572974 199.916432,238.871205 C199.425954,239.16867 199.023911,238.933305 199.019453,238.346042 L199,235.874324 C198.983782,233.619572 200.502775,230.856523 202.386654,229.714197 L207.173268,226.811616 C208.772521,225.841789 210.281854,225.674657 211.423329,226.341652 L212.819703,227.15968 C213.621559,227.628877 214.683517,227.511578 215.808643,226.829249 L235.102983,215.128458 C235.594947,214.83176 235.996247,215.066358 236,215.653621 C236.004421,216.240884 235.610553,216.959246 235.119333,217.256711 L215.824249,228.956736 C214.224995,229.927329 212.714919,230.093695 211.573445,229.426699 L210.17707,228.608671" id="Fill-279" fill="#5589BB"></path>
            <path d="M200.447531,235.595174 L200.471531,237.951743 L200.461531,238 C200.521531,237.852303 200.554531,237.703875 200.552531,237.562759 L200.527531,235.206191 C200.527531,235.138923 200.541531,235.06873 200.548531,235 C200.487531,235.201804 200.444531,235.402876 200.447531,235.595174" id="Fill-280" fill="#FFFFFE"></path>
            <path d="M183.49962,197 C179.533025,197 175.56643,196.120646 172.540352,194.363466 C166.486676,190.848343 166.486676,185.150127 172.539592,181.635769 C175.56567,179.87859 179.532265,179 183.49886,179 C187.466215,179 191.43281,179.87859 194.459648,181.636534 C200.513324,185.150127 200.513324,190.848343 194.460408,194.363466 C191.43357,196.120646 187.466975,197 183.49962,197" id="Fill-281" fill="#708BAA"></path>
            <path d="M201,180.85108 L201,175.916635 L200.072633,175.916635 C199.238832,174.475938 197.851932,173.119363 195.873448,171.972717 C189.040057,168.009094 177.959189,168.009094 171.124289,171.972717 C169.145805,173.119363 167.758904,174.475938 166.926613,175.916635 L166,175.916635 L166,180.824555 L166.000755,180.824555 C165.989436,183.430845 167.69552,186.038651 171.125043,188.027283 C177.959189,191.990906 189.040057,191.990906 195.874202,188.027283 C199.291652,186.04623 201,183.448276 201,180.85108" id="Fill-282" fill="#DA3685"></path>
            <path d="M195.874596,183.071256 C189.040598,186.976373 177.959968,186.976373 171.125216,183.070509 C164.291972,179.166139 164.291218,172.833861 171.125216,168.928744 C177.959214,165.023627 189.040598,165.023627 195.873841,168.929491 C202.708594,172.833861 202.708594,179.166139 195.874596,183.071256" id="Fill-283" fill="#DA3685"></path>
            <path d="M195.886754,182.544231 C189.045907,186.329491 177.954173,186.329491 171.113327,182.544231 C167.835279,180.731214 166.144895,178.376825 166.008939,176 C165.860898,178.582373 167.551283,181.190801 171.113327,183.161597 C177.954173,186.946134 189.045907,186.946134 195.886754,183.161597 C199.449553,181.190801 201.138427,178.583097 200.991142,176 C200.85443,178.376825 199.165556,180.731214 195.886754,182.544231" id="Fill-284" fill="#FFFFFE"></path>
            <path d="M175.463314,178.746695 C175.166825,178.585036 174.999244,178.364461 175,178.133109 L175.017443,171.864337 C175.018201,171.386545 175.728714,170.999283 176.602257,171 C177.477317,171 178.18328,171.388701 178.182522,171.86793 L178.168114,177.064724 L194.088292,175.21822 C194.944395,175.118351 195.783816,175.41724 195.965045,175.885692 C196.147034,176.352706 195.600311,176.813254 194.745724,176.912405 L176.910879,178.98092 C176.443017,179.035525 175.956199,178.97158 175.58464,178.806329 L175.463314,178.746695" id="Fill-285" fill="#FFFFFE"></path>
            <polyline id="Fill-286" fill="#8595AC" points="94 125 81 117.5 94 110 107 117.5 94 125"></polyline>
            <polyline id="Fill-287" fill="#BC187A" points="107 107.667158 94 115 94 100.333579 107 93 107 107.667158"></polyline>
            <polyline id="Fill-288" fill="#DA3685" points="94.0003772 100 81 92.5 93.9996228 85 107 92.5007539 94.0003772 100"></polyline>
            <polyline id="Fill-289" fill="#DA3685" points="94 115 81 107.667158 81 93 94 100.333579 94 115"></polyline>
            <polyline id="Fill-290" fill="#FFFFFE" points="89 107 85 105 85 101 89 103 89 107"></polyline>
            <polyline id="Fill-291" fill="#8595AC" points="13.5003763 259 0 251 13.4996237 243 27 251.000772 13.5003763 259"></polyline>
            <polyline id="Fill-292" fill="#263764" points="26 241.33284 13 249 13 233.66642 26 226 26 241.33284"></polyline>
            <polyline id="Fill-293" fill="#D4EAF2" points="13.5 233 0 225.000772 13.4992474 217 27 225.000772 13.5 233"></polyline>
            <polyline id="Fill-294" fill="#5589BB" points="13 249 0 241.33284 0 226 13 233.66642 13 249"></polyline>
            <polyline id="Fill-295" fill="#FFFFFE" points="8 241 4 238.666398 4 234 8 236.333602 8 241"></polyline>
            <path d="M65.3411725,241 C64.2324222,241 63.1244242,240.715438 62.1307614,240.145567 L11.847359,211.319665 C10.717547,210.672119 10.717547,209.052879 11.847359,208.404586 L59.6582634,181 L113.152077,211.666219 C114.282641,212.313765 114.282641,213.933005 113.152077,214.581298 L68.5515836,240.145567 C67.5586729,240.715438 66.4499227,241 65.3411725,241" id="Fill-296" fill="#8595AC"></path>
            <path d="M61,160.563477 C61.0029822,157.385752 58.7715448,156.091152 56.0273992,157.677767 L9.36796882,184.64874 C8.61271309,185.084517 8.00074698,186.147003 8,187.020802 C7.99925438,187.894602 8.60972789,188.249512 9.36498362,187.813736 L56.024414,160.842014 C57.262526,160.126203 58.2677922,160.710982 58.2670459,162.144102 L58.2625681,167.379411 C59.1678302,167.322505 60.0760774,167.321757 60.9940266,167.33748 L61,160.563477" id="Fill-297" fill="#DA3685"></path>
            <path d="M9.36469545,197.813917 L56.0135292,180.803934 C58.7578416,179.221801 60.9932847,175.355692 60.9962693,172.186946 L61,168.008741 C60.0822446,167.993062 59.1741891,167.993808 58.2691182,168.050553 L58.2638952,173.761613 C58.2624029,175.191431 57.2543643,176.934092 56.0165137,177.647881 L9.36768002,194.657864 C8.61332988,195.093156 8.00074683,196.15264 8,197.02397 C7.99925454,197.894554 8.61034531,198.249208 9.36469545,197.813917" id="Fill-298" fill="#BC187A"></path>
            <polyline id="Fill-299" fill="#BC187A" points="8 197.81739 64.9544152 231 113.174782 202.045142 117 196.295791 116.6031 198.333889 115.574904 193 26.0656943 196.4383 10.2952808 195.415104 8 197.81739"></polyline>
            <polyline id="Fill-300" fill="#D46C9E" points="9.01585619 188 9 195.03604 64.5012121 227 66 220.294679 9.01585619 188"></polyline>
            <polyline id="Fill-301" fill="#DA3685" points="117 191.160946 59.7356903 158 8.10633411 188.051754 8 188.790744 65.3480195 222 117 191.160946"></polyline>
            <path d="M98.5000761,208.128236 L111.96512,200.274272 C113.099463,199.490359 113.98944,197.906216 113.990948,196.581648 L114,195.541127 C114.000753,194.70085 113.643254,194.157228 113.091921,194 L86.5857032,208.499798 L65,219.98038 L65.0196097,227 L98.5000761,208.128236" id="Fill-302" fill="#FFFFFE"></path>
            <path d="M67,219.91654 L10.6483817,187.322403 L9.45414656,186.63096 L8.36297859,186 C8.14041319,186.409191 8,186.85945 8,187.270134 C7.99925594,187.698739 8.14788183,188.000405 8.38837196,188.146012 L8.38911883,188.148998 L8.39733433,188.154225 L8.40181551,188.156465 L65.1836273,221 L67,219.91654" id="Fill-303" fill="#BC187A"></path>
            <polyline id="Fill-304" fill="#FFFFFE" points="64 230.3345 64.844306 230.8835 65 230.5815 64.4741993 230.1165 64 230.3345"></polyline>
            <polyline id="Fill-305" fill="#FFFFFE" points="64.014 221.219 64.986 221.781 64.743 221.251 64.014 221.219"></polyline>
            <path d="M66.3846853,218.050123 L113.029009,190.688064 C115.772266,189.077683 118.002981,190.391055 118,193.615617 L117.990298,194.681356 C117.987314,197.905917 115.752123,201.839199 113.00812,203.448821 L66.3645417,230.81088 C65.6102765,231.252976 64.9992546,230.893678 65,230.007209 C65.0007467,229.120739 65.6132608,228.042847 66.3675259,227.600751 L113.011104,200.237933 C114.248815,199.511742 115.25674,197.738043 115.258232,196.284141 L115.267185,195.219162 C115.268677,193.764501 114.26299,193.172002 113.026025,193.897434 L66.381701,221.261012 C65.6266898,221.703107 65.0156679,221.34305 65.01716,220.456581 C65.0179061,219.570111 65.6296741,218.492219 66.3846853,218.050123" id="Fill-306" fill="#DA3685"></path>
            <path d="M64.7473359,230.448731 C64.7480817,229.561185 65.3604188,228.481983 66.1144661,228.03935 L112.74457,200.64329 C113.981923,199.916217 114.989557,198.140363 114.990303,196.684695 L115,195.618423 C115.000745,194.664709 114.568902,194.08442 113.924493,194 C114.131838,194.277596 114.254156,194.673836 114.25341,195.177311 L114.243714,196.244344 C114.242223,197.700012 113.234589,199.475866 111.997235,200.202179 L65.3671314,227.598239 C64.6130841,228.041632 64.000747,229.120073 64,230.00762 C63.9992553,230.679935 64.3505474,231.048795 64.8487705,230.994797 C64.7838822,230.845732 64.7473359,230.663963 64.7473359,230.448731" id="Fill-307" fill="#FFFFFE"></path>
            <path d="M64.7492893,220.456717 C64.7500371,219.582829 65.363227,218.520235 66.1199931,218.084414 L112.872732,191.1107 C114.056487,190.427015 115.144525,190.280244 116,190.586517 C115.08545,189.806233 113.688573,189.773284 112.123443,190.676377 L65.3707049,217.650091 C64.6139389,218.086661 64.000749,219.149255 64,220.022394 C63.9992534,220.685111 64.3514637,221.046798 64.8509891,220.995128 C64.7859312,220.848357 64.7485415,220.668637 64.7492893,220.456717" id="Fill-308" fill="#FFFFFE"></path>
            <polyline id="Fill-309" fill="#FFFFFE" points="43 190.966919 68.7057691 176 91 189.033834 65.2942309 204 43 190.966919"></polyline>
            <path d="M125.498642,268 C118.717429,267.999241 111.934718,266.486175 106.761693,263.460045 C96.4126442,257.407024 96.4126442,247.592976 106.762442,241.539955 C111.936967,238.513065 118.718179,237 125.50089,237 C132.282102,237 139.064813,238.513065 144.238588,241.539955 C154.587637,247.592217 154.586887,257.406265 144.237839,263.460045 C139.062565,266.486935 132.281353,268 125.498642,268 M125.500141,245.375383 C122.382686,245.375383 119.265232,246.070801 116.886675,247.461636 C112.129559,250.244826 112.129559,254.755933 116.885925,257.538364 C119.264483,258.929199 122.381937,259.624617 125.499391,259.624617 C128.616845,259.624617 131.735049,258.929199 134.113607,257.537604 C138.869972,254.755174 138.870722,250.244826 134.113607,247.461636 C131.735049,246.070801 128.617595,245.375383 125.500141,245.375383" id="Fill-310" fill="#8595AC"></path>
            <path d="M148.499068,237.856329 L139.096161,238 C138.399925,237.114636 137.412225,236.283969 136.126351,235.557592 C130.955274,232.636766 122.824823,232.410684 117.190831,234.875701 L111.603802,229.734172 L103,229.866174 C103.424898,229.594147 103.861722,229.325767 104.3224,229.064679 C116.279165,222.312138 135.663436,222.311409 147.619456,229.064679 C149.819232,230.307398 151.609765,231.691599 153,233.165504 L148.499068,237.856329" id="Fill-311" fill="#A42274"></path>
            <polyline id="Fill-312" fill="#BC187A" points="102 216.136231 102 230 111 229.863012 111 216 102 216.136231"></polyline>
            <polyline id="Fill-313" fill="#A42274" points="117 221.279734 117 235 111 229.719517 111 216 117 221.279734"></polyline>
            <path d="M138.963174,224.414818 L138.963174,238 L126.560775,227.971677 L117,234.822856 L117,221.237675 L125.802908,217 C125.802908,217 137.922042,220.681452 138.552103,220.837936 C139.182163,220.99442 138.963174,224.414818 138.963174,224.414818" id="Fill-314" fill="#A42274"></path>
            <polyline id="Fill-315" fill="#A42274" points="148 225 148 238.851032 139 239 139 225.148212 148 225"></polyline>
            <polyline id="Fill-316" fill="#BC187A" points="153 220 153 234.062303 148 239 148 224.938465 153 220"></polyline>
            <path d="M148.499068,224.85706 L139.096161,225 C138.399925,224.113918 137.412225,223.283992 136.126351,222.556894 C130.955274,219.636835 122.824823,219.410757 117.190831,221.875741 L111.603802,216.735009 L103,216.86628 C103.424898,216.594257 103.861722,216.32588 104.3224,216.065525 C116.279165,209.311613 135.663436,209.311613 147.619456,216.064796 C149.819232,217.306769 151.609765,218.692411 153,220.165567 L148.499068,224.85706" id="Fill-317" fill="#DA3685"></path>
            <path d="M114,223 L114,236 L106,233.979631 C106,233.979631 106.47033,226.372944 106.640293,226.169903 C106.810989,225.966863 114,223 114,223" id="Fill-318" fill="#5589BB"></path>
            <path d="M120,236 L120,250.036782 L119.069505,251 L113,247.598467 C113,247.598467 113.940746,236.883525 114.051932,236.668199 C114.163118,236.452874 120,236 120,236" id="Fill-319" fill="#263764"></path>
            <path d="M108.989571,232 L113.879227,236.655741 C109.805872,239.91881 110.288097,244.519054 115.326642,247.464141 C116.70739,248.271096 118.299991,248.877812 120,249.28504 L114.945899,254.736487 L119.424441,259 C113.737745,258.335537 108.313271,256.717127 103.9051,254.14102 C93.6909719,248.170602 92.2672607,239.01361 99.614707,232.147742 L108.989571,232" id="Fill-320" fill="#3B6397"></path>
            <polyline id="Fill-321" fill="#3B6397" points="120 245.178457 120 259 108.650563 254.638559 95 241.677231 95.0507991 227 109.49216 238.392567 120 245.178457"></polyline>
            <path d="M108.989571,219 L113.879227,223.655741 C109.805872,226.91806 110.288097,231.518305 115.326642,234.463391 C116.70739,235.270346 118.299991,235.877062 120,236.28429 L114.945899,241.734987 L119.424441,246 C113.737745,245.334787 108.313271,243.716377 103.9051,241.13952 C93.6909719,235.169852 92.2672607,226.01286 99.614707,219.147742 L108.989571,219" id="Fill-322" fill="#D4EAF2"></path>
            <path d="M120,254.41257 L124.530517,249.702463 C128.737048,249.951679 133.100298,249.170215 136.324326,247.353659 C139.653838,245.478291 141.025123,242.917763 140.442704,240.477064 L151.233666,240.312391 L155.382182,236 C159.011568,242.077486 156.535719,249.057002 147.941074,253.897965 C141.626379,257.455357 133.260784,259.149878 124.987863,258.989615 L120,254.41257" id="Fill-323" fill="#3B6397"></path>
            <polyline id="Fill-324" fill="#3B6397" points="125 245.437593 125 259 157 241.569071 157 228 152.327747 229.85689 125 245.437593"></polyline>
            <polyline id="Fill-325" fill="#263764" points="120 241 120 254.434182 125 259 125 245.566551 120 241"></polyline>
            <path d="M120,241.411835 L124.530517,236.701728 C128.737048,236.951679 133.100298,236.170215 136.324326,234.353659 C139.653838,232.477556 141.025123,229.917763 140.442704,227.476329 L151.233666,227.312391 L155.382182,223 C159.011568,229.076751 156.535719,236.056266 147.941074,240.897965 C141.626379,244.455357 133.260784,246.149878 124.987863,245.989615 L120,241.411835" id="Fill-326" fill="#5589BB"></path>
        </g>
    </g>
</svg>